<svg id="Layer_1" data-name="Layer 1" xmlns="http://www.w3.org/2000/svg" xmlns:xlink="http://www.w3.org/1999/xlink" viewBox="0 0 23.52 23.5"><defs><style>.cls-1,.cls-4{fill:none;}.cls-1{clip-rule:evenodd;}.cls-2{clip-path:url(#clip-path);}.cls-3{fill:#e74c3c;}.cls-4{stroke:#ff6f59;stroke-miterlimit:10;stroke-width:1.3px;}</style><clipPath id="clip-path" transform="translate(-32.65 -21.65)"><path class="cls-1" d="M45.1,33.4l6-6q.21-.15,0-.37l-.31-.31c-.12-.14-.25-.14-.39,0l-6,6-5.95-6c-.12-.14-.25-.14-.39,0l-.31.31q-.21.21,0,.37l6,6-6,6q-.21.21,0,.37l.31.33a.25.25,0,0,0,.39,0l5.95-6,6,6a.25.25,0,0,0,.39,0l.31-.33q.21-.15,0-.37Z"/></clipPath></defs><title>cross</title><g class="cls-2"><rect class="cls-3" width="23.52" height="23.5"/></g><path class="cls-4" d="M45.1,33.4l6-6q.21-.15,0-.37l-.31-.31c-.12-.14-.25-.14-.39,0l-6,6-5.95-6c-.12-.14-.25-.14-.39,0l-.31.31q-.21.21,0,.37l6,6-6,6q-.21.21,0,.37l.31.33a.25.25,0,0,0,.39,0l5.95-6,6,6a.25.25,0,0,0,.39,0l.31-.33q.21-.15,0-.37Z" transform="translate(-32.65 -21.65)"/></svg>