<svg xmlns="http://www.w3.org/2000/svg" xmlns:xlink="http://www.w3.org/1999/xlink" viewBox="0 0 48.49 41.71"><defs><style>.cls-1,.cls-2{fill:none;}.cls-1{clip-rule:evenodd;}.cls-3{clip-path:url(#clip-path);}.cls-4{clip-path:url(#clip-path-2);}.cls-5{fill:#666;}</style><clipPath id="clip-path" transform="translate(0 -17.26)"><path class="cls-1" d="M37.06,28.42H23.68c-.43-.82-.7-1.4-.86-1.72a10.13,10.13,0,0,0-.9-1.25,3.69,3.69,0,0,0-3.24-1.33H11.44a4.61,4.61,0,0,0-4.6,4.6V47.49a4.61,4.61,0,0,0,4.6,4.6H37.06a4.61,4.61,0,0,0,4.6-4.6V33A4.61,4.61,0,0,0,37.06,28.42ZM24.85,26.59H37.06A6.39,6.39,0,0,1,43.49,33V47.49a6.34,6.34,0,0,1-1.87,4.56A6.22,6.22,0,0,1,37.06,54H11.44a6.07,6.07,0,0,1-4.52-1.91A6.22,6.22,0,0,1,5,47.49V28.73a6.22,6.22,0,0,1,1.91-4.56,6.07,6.07,0,0,1,4.52-1.91h7.25C21.69,22.26,23.29,23.66,24.85,26.59Z"/></clipPath><clipPath id="clip-path-2" transform="translate(0 -17.26)"><rect class="cls-2" x="1.1" width="46" height="58"/></clipPath></defs><title>Asset 3</title><g id="Layer_2" data-name="Layer 2"><g id="Layer_1-2" data-name="Layer 1"><g class="cls-3"><g class="cls-4"><rect class="cls-5" width="48.49" height="41.71"/></g></g></g></g></svg>