<svg xmlns="http://www.w3.org/2000/svg" xmlns:xlink="http://www.w3.org/1999/xlink" viewBox="0 0 51.11 43.31"><defs><style>.cls-1,.cls-2{fill:none;}.cls-1{clip-rule:evenodd;}.cls-3{clip-path:url(#clip-path);}.cls-4{clip-path:url(#clip-path-2);}.cls-5{fill:#666;}</style><clipPath id="clip-path" transform="translate(0 -16.52)"><path class="cls-1" d="M37.41,33.84H11.17c-3,0-4.84,1.64-4.17,4.56L9.57,49.48A4.45,4.45,0,0,0,14,53H39.64A4.4,4.4,0,0,0,43.3,51.2a4.52,4.52,0,0,0,.82-4l-2.26-9.91A4.48,4.48,0,0,0,37.41,33.84Zm6.32,3.35.7,4.13-.16-9.48c0-2.54-2.07-4.17-4.6-4.17h-12q-.53-1.11-.7-1.4c-.12-.2-.31-.59-.66-1.09a4.37,4.37,0,0,0-.94-1.05,5.66,5.66,0,0,0-2.69-.78H15.22c-2.61,0-4.6,1.56-4.6,4.06v2c0,.35-.16.51-.51.51H9.3c-.35,0-.55-.16-.55-.51v-2a5.36,5.36,0,0,1,1.91-4.29,6.85,6.85,0,0,1,4.56-1.6h7.45c3,0,4.6,1.36,6.12,4.29H39.68a6.53,6.53,0,0,1,4.56,1.68,5.66,5.66,0,0,1,1.87,4.37V48.66a5.76,5.76,0,0,1-2,4.33,6.57,6.57,0,0,1-4.52,1.83H14a6.36,6.36,0,0,1-6.28-4.91L5.2,38.8a5.18,5.18,0,0,1,1.05-5A6.41,6.41,0,0,1,11.17,32H37.41A6.3,6.3,0,0,1,43.73,37.2Z"/></clipPath><clipPath id="clip-path-2" transform="translate(0 -16.52)"><rect class="cls-2" x="0.4" width="46" height="58"/></clipPath></defs><title>Asset 4</title><g id="Layer_2" data-name="Layer 2"><g id="Layer_1-2" data-name="Layer 1"><g class="cls-3"><g class="cls-4"><rect class="cls-5" width="51.11" height="43.31"/></g></g></g></g></svg>