<svg xmlns="http://www.w3.org/2000/svg" xmlns:xlink="http://www.w3.org/1999/xlink" viewBox="0 0 47.67 41.83"><defs><style>.cls-1,.cls-2{fill:none;}.cls-1{clip-rule:evenodd;}.cls-3{clip-path:url(#clip-path);}.cls-4{clip-path:url(#clip-path-2);}.cls-5{fill:#666;}</style><clipPath id="clip-path" transform="translate(0 -16.3)"><path class="cls-1" d="M27,23.4v6.94c-6.83.51-11.86,2.34-15,5.58S7.07,44.19,6.87,51C11.4,43.57,17.75,40.68,27,40.68v7.6L40.76,35.81Zm-1.87,5.23V23a1.61,1.61,0,0,1,1-1.56,1.55,1.55,0,0,1,1.79.31l14.2,12.79a1.67,1.67,0,0,1,0,2.54L27.89,49.92a1.47,1.47,0,0,1-1.79.27,1.61,1.61,0,0,1-1-1.56V42.55Q13.79,42.9,8.24,52.3A1.75,1.75,0,0,1,5,51.41C5.27,37.52,11.47,29.88,25.08,28.63Z"/></clipPath><clipPath id="clip-path-2" transform="translate(0 -16.3)"><rect class="cls-2" x="1.1" width="46" height="58"/></clipPath></defs><title>Asset 9</title><g id="Layer_2" data-name="Layer 2"><g id="Layer_1-2" data-name="Layer 1"><g class="cls-3"><g class="cls-4"><rect class="cls-5" width="47.67" height="41.83"/></g></g></g></g></svg>