<svg xmlns="http://www.w3.org/2000/svg" xmlns:xlink="http://www.w3.org/1999/xlink" viewBox="0 0 38.39 44.59"><defs><style>.cls-1,.cls-2{fill:none;}.cls-1{clip-rule:evenodd;}.cls-3{clip-path:url(#clip-path);}.cls-4{clip-path:url(#clip-path-2);}.cls-5{fill:#666;}</style><clipPath id="clip-path" transform="translate(-3.4 -14.7)"><path class="cls-1" d="M29,47.86H16.16c-.35,0-.51-.16-.51-.51v-.82c0-.35.16-.51.51-.51H29c.35,0,.51.16.51.51v.82C29.5,47.7,29.34,47.86,29,47.86Zm0-6.12H16.16c-.35,0-.51-.16-.51-.51v-.82c0-.35.16-.51.51-.51H29c.35,0,.51.16.51.51v.82C29.5,41.58,29.34,41.73,29,41.73Zm0-6H16.16c-.35,0-.51-.16-.51-.51v-.82c0-.35.16-.55.51-.55H29c.35,0,.51.2.51.55v.82C29.5,35.53,29.34,35.69,29,35.69Zm5.58-6.86-6.94-6.9v6.9Zm.35,19V30.5H27.67a1.71,1.71,0,0,1-1.72-1.72V21.57H15a4.56,4.56,0,0,0-3.32,1.37,4.51,4.51,0,0,0-1.4,3.32V47.78a4.51,4.51,0,0,0,1.4,3.32A4.56,4.56,0,0,0,15,52.46H30.24A4.69,4.69,0,0,0,34.92,47.78ZM28.64,20.29l7.57,7.57a2,2,0,0,1,.58,1.4V47.78a6.24,6.24,0,0,1-1.91,4.6,6.33,6.33,0,0,1-4.64,1.91H15a6.27,6.27,0,0,1-4.64-1.91,6.24,6.24,0,0,1-1.91-4.6V26.25a6.27,6.27,0,0,1,1.91-4.64A6.27,6.27,0,0,1,15,19.7H27.24A1.91,1.91,0,0,1,28.64,20.29Z"/></clipPath><clipPath id="clip-path-2" transform="translate(-3.4 -14.7)"><rect class="cls-2" width="46" height="58"/></clipPath></defs><title>Asset 2</title><g id="Layer_2" data-name="Layer 2"><g id="Layer_1-2" data-name="Layer 1"><g class="cls-3"><g class="cls-4"><rect class="cls-5" width="38.39" height="44.59"/></g></g></g></g></svg>