<svg xmlns="http://www.w3.org/2000/svg" xmlns:xlink="http://www.w3.org/1999/xlink" viewBox="0 0 39.09 44.32"><defs><style>.cls-1,.cls-2{fill:none;}.cls-1{clip-rule:evenodd;}.cls-3{clip-path:url(#clip-path);}.cls-4{clip-path:url(#clip-path-2);}.cls-5{fill:#666;}</style><clipPath id="clip-path" transform="translate(0 -15.86)"><path class="cls-1" d="M13,52a4.33,4.33,0,0,0,3.2,1.33H22.9A4.33,4.33,0,0,0,26.1,52a5.43,5.43,0,0,0,1.56-3.51L29.3,27.21H9.8l1.64,21.25A5.59,5.59,0,0,0,13,52ZM15.8,22.53v2.81h7.49V22.53Zm7.1,32.64H16.19a6.31,6.31,0,0,1-4.52-1.87A7.4,7.4,0,0,1,9.6,48.62L8,27.21H5.51c-.35,0-.51-.16-.51-.51v-.86c0-.35.16-.51.51-.51h8.62V22.49a1.66,1.66,0,0,1,1.68-1.64h7.53A1.65,1.65,0,0,1,25,22.49v2.85h8.62c.35,0,.51.16.51.51v.86c0,.35-.16.51-.51.51H31.17L29.53,48.62a7.43,7.43,0,0,1-2.11,4.68A6.31,6.31,0,0,1,22.9,55.18Z"/></clipPath><clipPath id="clip-path-2" transform="translate(0 -15.86)"><rect class="cls-2" x="1.1" width="46" height="58"/></clipPath></defs><title>Asset 5</title><g id="Layer_2" data-name="Layer 2"><g id="Layer_1-2" data-name="Layer 1"><g class="cls-3"><g class="cls-4"><rect class="cls-5" width="39.09" height="44.32"/></g></g></g></g></svg>