<svg xmlns="http://www.w3.org/2000/svg" xmlns:xlink="http://www.w3.org/1999/xlink" viewBox="0 0 37.35 44.42"><defs><style>.cls-1,.cls-2{fill:none;}.cls-1{clip-rule:evenodd;}.cls-3{clip-path:url(#clip-path);}.cls-4{clip-path:url(#clip-path-2);}.cls-5{fill:#666;}</style><clipPath id="clip-path" transform="translate(0 -14.82)"><path class="cls-1" d="M22.24,49.73H15.11a3.32,3.32,0,0,0,2,2.38,4.13,4.13,0,0,0,3.2,0A3.27,3.27,0,0,0,22.24,49.73ZM7.5,47.86H29.85a23.42,23.42,0,0,1-3.32-12.48c0-11.31-15.72-11.31-15.72,0A23.42,23.42,0,0,1,7.5,47.86ZM18.7,21.49a1.74,1.74,0,1,0,1.72,1.76A1.75,1.75,0,0,0,18.7,21.49ZM13.24,49.73H6.1A1.08,1.08,0,0,1,5.2,48,21.66,21.66,0,0,0,9,35.38c0-5.34,2.92-8.89,7-10a3.23,3.23,0,0,1-.74-2.11,3.41,3.41,0,1,1,6.83,0,3.23,3.23,0,0,1-.74,2.11c4.1,1.13,7,4.68,7,10A21.66,21.66,0,0,0,32.15,48a1.08,1.08,0,0,1-.9,1.72H24.12C23.3,55.74,14.05,55.74,13.24,49.73Z"/></clipPath><clipPath id="clip-path-2" transform="translate(0 -14.82)"><rect class="cls-2" x="0.79" width="46" height="58"/></clipPath></defs><title>Asset 7</title><g id="Layer_2" data-name="Layer 2"><g id="Layer_1-2" data-name="Layer 1"><g class="cls-3"><g class="cls-4"><rect class="cls-5" width="37.35" height="44.42"/></g></g></g></g></svg>