<svg xmlns="http://www.w3.org/2000/svg" xmlns:xlink="http://www.w3.org/1999/xlink" viewBox="0 0 38.39 44.59"><defs><style>.cls-1,.cls-2{fill:none;}.cls-1{clip-rule:evenodd;}.cls-3{clip-path:url(#clip-path);}.cls-4{clip-path:url(#clip-path-2);}.cls-5{fill:#666;}</style><clipPath id="clip-path" transform="translate(0 -14.7)"><path class="cls-1" d="M30.82,28.48l-6.2-6.2v6.2Zm.74,19.3V30.15H24.62a1.66,1.66,0,0,1-1.68-1.68v-6.9H11.55a4.69,4.69,0,0,0-4.68,4.68V47.78a4.69,4.69,0,0,0,4.68,4.68H26.84a4.72,4.72,0,0,0,3.35-1.36A4.56,4.56,0,0,0,31.56,47.78Zm-6.4-27.57,7.72,7.72a1.51,1.51,0,0,1,.51,1.21V47.78a6.52,6.52,0,0,1-6.55,6.51H11.55a6.24,6.24,0,0,1-4.6-1.91A6.28,6.28,0,0,1,5,47.78V26.25a6.3,6.3,0,0,1,1.95-4.64,6.24,6.24,0,0,1,4.6-1.91H24A1.62,1.62,0,0,1,25.16,20.21Z"/></clipPath><clipPath id="clip-path-2" transform="translate(0 -14.7)"><rect class="cls-2" x="1.1" width="46" height="58"/></clipPath></defs><title>Asset 1</title><g id="Layer_2" data-name="Layer 2"><g id="Layer_1-2" data-name="Layer 1"><g class="cls-3"><g class="cls-4"><rect class="cls-5" width="38.39" height="44.59"/></g></g></g></g></svg>