<svg xmlns="http://www.w3.org/2000/svg" xmlns:xlink="http://www.w3.org/1999/xlink" viewBox="0 0 47.77 44.08"><defs><style>.cls-1,.cls-2{fill:none;}.cls-1{clip-rule:evenodd;}.cls-3{clip-path:url(#clip-path);}.cls-4{clip-path:url(#clip-path-2);}.cls-5{fill:#666;}</style><clipPath id="clip-path" transform="translate(0 -15.7)"><path class="cls-1" d="M31.64,50.46a2.61,2.61,0,0,1,3.63,0,2.5,2.5,0,0,1,0,3.59,2.61,2.61,0,0,1-3.63,0A2.57,2.57,0,0,1,31.64,50.46Zm-9.79,0a2.54,2.54,0,1,1,0,3.59A2.5,2.5,0,0,1,21.85,50.46Zm19-19.3H17.09l2.22,11.27a4.31,4.31,0,0,0,4.52,3.51h9.4a4.58,4.58,0,0,0,4.49-3.24Zm-24.1-1.87H41a1.71,1.71,0,0,1,1.68,2.11L39.48,43.16a6.33,6.33,0,0,1-6.24,4.64h-9.4a6.15,6.15,0,0,1-6.36-5L14.09,25.38c-.43-2-1.48-2.81-3.63-2.81h-5c-.35,0-.51-.16-.51-.51v-.86c0-.35.16-.51.51-.51h5c3.08,0,4.88,1.44,5.46,4.33Z"/></clipPath><clipPath id="clip-path-2" transform="translate(0 -15.7)"><rect class="cls-2" x="1.1" width="46" height="58"/></clipPath></defs><title>Asset 6</title><g id="Layer_2" data-name="Layer 2"><g id="Layer_1-2" data-name="Layer 1"><g class="cls-3"><g class="cls-4"><rect class="cls-5" width="47.77" height="44.08"/></g></g></g></g></svg>