<svg xmlns="http://www.w3.org/2000/svg" xmlns:xlink="http://www.w3.org/1999/xlink" viewBox="0 0 47.64 41.83"><defs><style>.cls-1,.cls-2{fill:none;}.cls-1{clip-rule:evenodd;}.cls-3{clip-path:url(#clip-path);}.cls-4{clip-path:url(#clip-path-2);}.cls-5{fill:#666;}</style><clipPath id="clip-path" transform="translate(0 -16.34)"><path class="cls-1" d="M20.69,30.39V23.44L6.92,35.85,20.69,48.33v-7.6c9.2,0,15.56,2.89,20.12,10.33-.2-6.83-1.87-11.86-5.07-15.09S27.51,30.89,20.69,30.39Zm1.87-7.33v5.62c13.61,1.25,19.81,8.89,20.08,22.78a1.75,1.75,0,0,1-3.24.9q-5.5-9.42-16.85-9.75v6.08a1.58,1.58,0,0,1-1,1.56A1.54,1.54,0,0,1,19.75,50L5.56,37.13a1.72,1.72,0,0,1,0-2.54l14.2-12.79a1.61,1.61,0,0,1,1.83-.31A1.58,1.58,0,0,1,22.56,23.05Z"/></clipPath><clipPath id="clip-path-2" transform="translate(0 -16.34)"><rect class="cls-2" x="1.11" width="46" height="58"/></clipPath></defs><title>Asset 8</title><g id="Layer_2" data-name="Layer 2"><g id="Layer_1-2" data-name="Layer 1"><g class="cls-3"><g class="cls-4"><rect class="cls-5" width="47.64" height="41.83"/></g></g></g></g></svg>