<svg xmlns="http://www.w3.org/2000/svg" xmlns:xlink="http://www.w3.org/1999/xlink" viewBox="0 0 48.48 45.26"><defs><style>.cls-1,.cls-2{fill:none;}.cls-1{clip-rule:evenodd;}.cls-3{clip-path:url(#clip-path);}.cls-4{clip-path:url(#clip-path-2);}.cls-5{fill:#666;}</style><clipPath id="clip-path" transform="translate(0 -14.7)"><path class="cls-1" d="M10,53.08H38.44c4.41,0,3.7-4,.82-5.15L30.05,44a1.15,1.15,0,0,1-.74-1.36,1.09,1.09,0,0,1,1.13-1,15.76,15.76,0,0,0,7.25-2.3,22.2,22.2,0,0,1-2.81-4.76c-.82-1.83-1.48-3.43-2-4.87a34.55,34.55,0,0,0-1.79-4.06,7.26,7.26,0,0,0-6.9-4.1c-5.07-.19-7.18,3.86-8.66,8.15-.51,1.44-1.21,3-2,4.88a22.2,22.2,0,0,1-2.81,4.76A15.91,15.91,0,0,0,18,41.62a1.09,1.09,0,0,1,1.13,1A1.19,1.19,0,0,1,18.39,44l-9.2,3.9C6.26,49,5.68,53.24,10,53.08ZM38.44,55H10c-3.08,0-4.88-1.72-5-3.59a5.47,5.47,0,0,1,3.47-5.19l7.6-3a18.74,18.74,0,0,1-6.47-2.34,1.66,1.66,0,0,1-.43-2.53,31.63,31.63,0,0,0,4.21-8.23A35.32,35.32,0,0,1,15,26.17c1.76-3.82,3.94-6.36,9.24-6.47,3.39,0,5.89,1.29,7.29,3.12a20.08,20.08,0,0,1,1.95,3.35c1.25,2.65,1.91,5.07,3.39,8.11a21.91,21.91,0,0,0,2.42,4,1.67,1.67,0,0,1-.47,2.53,19.38,19.38,0,0,1-6.36,2.34L40,46.26a5.36,5.36,0,0,1,3.47,5.15C43.31,53.28,41.44,55,38.44,55Z"/></clipPath><clipPath id="clip-path-2" transform="translate(0 -14.7)"><rect class="cls-2" x="1.03" width="46" height="58"/></clipPath></defs><title>Asset 18</title><g id="Layer_2" data-name="Layer 2"><g id="Layer_1-2" data-name="Layer 1"><g class="cls-3"><g class="cls-4"><rect class="cls-5" width="48.48" height="45.26"/></g></g></g></g></svg>