<svg xmlns="http://www.w3.org/2000/svg" xmlns:xlink="http://www.w3.org/1999/xlink" viewBox="0 0 35.39 45.61"><defs><style>.cls-1,.cls-2{fill:none;}.cls-1{clip-rule:evenodd;}.cls-3{clip-path:url(#clip-path);}.cls-4{clip-path:url(#clip-path-2);}.cls-5{fill:#666;}</style><clipPath id="clip-path" transform="translate(0 -14.19)"><path class="cls-1" d="M13.27,29.92v.82c0,.35-.16.51-.51.51H11.47a4.61,4.61,0,0,0-4.6,4.6V48.33a4.61,4.61,0,0,0,4.6,4.6H24a4.53,4.53,0,0,0,4.56-4.6V35.85A4.53,4.53,0,0,0,24,31.24H22.63c-.35,0-.51-.16-.51-.51v-.82c0-.35.16-.51.51-.51H24a6.39,6.39,0,0,1,6.43,6.43V48.33A6.39,6.39,0,0,1,24,54.8H11.47A6.46,6.46,0,0,1,5,48.33V35.85a6.22,6.22,0,0,1,1.91-4.56,6.21,6.21,0,0,1,4.56-1.87h1.29C13.11,29.41,13.27,29.57,13.27,29.92ZM16.78,41V22.23l-3.59,3.59a.48.48,0,0,1-.74,0l-.59-.58c-.27-.27-.27-.51,0-.74l5-5a1.22,1.22,0,0,1,1.72,0l5,5a.48.48,0,0,1,0,.74l-.58.58a.44.44,0,0,1-.7,0l-3.59-3.59V41c0,.35-.16.51-.51.51h-.86C16.93,41.5,16.78,41.35,16.78,41Z"/></clipPath><clipPath id="clip-path-2" transform="translate(0 -14.19)"><rect class="cls-2" x="1.1" width="46" height="58"/></clipPath></defs><title>Asset 10</title><g id="Layer_2" data-name="Layer 2"><g id="Layer_1-2" data-name="Layer 1"><g class="cls-3"><g class="cls-4"><rect class="cls-5" width="35.39" height="45.61"/></g></g></g></g></svg>