<svg xmlns="http://www.w3.org/2000/svg" xmlns:xlink="http://www.w3.org/1999/xlink" viewBox="0 0 83.57 44.95"><defs><style>.cls-1,.cls-2{fill:none;}.cls-1{clip-rule:evenodd;}.cls-3{clip-path:url(#clip-path);}.cls-4{clip-path:url(#clip-path-2);}.cls-5{fill:#666;}</style><clipPath id="clip-path" transform="translate(0 -14.66)"><path class="cls-1" d="M60.66,39.12a5.46,5.46,0,0,1-1.91-3.71l-.55-4.8a5.29,5.29,0,0,1,1.87-5,8.11,8.11,0,0,1,5.38-1.83,8.29,8.29,0,0,1,5.42,1.83,5.35,5.35,0,0,1,1.83,5l-.55,4.8a5.86,5.86,0,0,1-1.87,3.71L76,41.85c3.67,1.56,3.51,6.82-1,6.63H63.47c-.35,0-.51-.16-.51-.51v-.86c0-.35.16-.51.51-.51H75c2.57,0,1.87-2.22.2-3.08l-6.75-3.2a1.1,1.1,0,0,1-.08-2.07,4.23,4.23,0,0,0,1.91-3l.58-4.84a3.62,3.62,0,0,0-1.4-3.51,6.63,6.63,0,0,0-4-1.21,6.43,6.43,0,0,0-4,1.21,3.47,3.47,0,0,0-1.4,3.51l.55,4.84a4.23,4.23,0,0,0,1.91,3,1.11,1.11,0,0,1-.12,2.07l-5,2.42q-.41.23-.7-.23l-.35-.74a.43.43,0,0,1,.23-.66ZM8.56,48.48c-4.84,0-4.37-5.38-.82-6.67l4.6-1.68a9.09,9.09,0,0,1-4.21-1.33,1.41,1.41,0,0,1-.39-2.14A22.15,22.15,0,0,0,10.62,31a22.12,22.12,0,0,1,1.09-2.73c1.25-2.57,2.77-4.48,6.55-4.48,4.33-.16,6,2.92,7.18,6,.78,2.07,1.91,5.07,3.32,6.83a1.4,1.4,0,0,1-.35,2.14,11.53,11.53,0,0,1-3.94,1.37l4.29,1.68a.47.47,0,0,1,.31.66l-.35.78c-.12.35-.31.43-.66.27L22.13,41a1.17,1.17,0,0,1,.39-2.18A10.4,10.4,0,0,0,27,37.45a18.78,18.78,0,0,1-2.14-4c-.66-1.6-1.21-2.89-1.56-3.94a5.44,5.44,0,0,0-5.07-3.86,5.44,5.44,0,0,0-5.07,3.86c-.35,1.05-.86,2.34-1.52,3.94a18.77,18.77,0,0,1-2.18,4A10.4,10.4,0,0,0,14,38.81a1,1,0,0,1,1,.94A1,1,0,0,1,14.37,41l-6,2.54c-1.64.7-2.61,3.12.16,3.12H22.67c.35,0,.51.16.51.51V48c0,.35-.16.51-.51.51Zm30-5.69-9.79,4.72c-3,1.21-3.7,5.42.47,5.26H56.92c4.25,0,3.32-3.9.47-5.26l-9.91-4.76c-1.05-.51-.86-1.56.08-2.18a11.45,11.45,0,0,0,1.13-.9,6.57,6.57,0,0,0,1.83-3.82l.78-7c.55-4.87-3.86-7.45-8.23-7.33-4.33-.12-8.81,2.46-8.27,7.33l.82,7a6.3,6.3,0,0,0,3,4.76C39.72,41.27,39.64,42.28,38.55,42.79ZM28,45.83l8.85-4.25A8.07,8.07,0,0,1,33.75,36L33,29.1c-.74-6,4.6-9.59,10.1-9.44a13.42,13.42,0,0,1,5.23,1,8,8,0,0,1,4.88,8.42L52.35,36a7.84,7.84,0,0,1-3.08,5.54l8.89,4.25a6.16,6.16,0,0,1,3.2,3.24A3.8,3.8,0,0,1,61,52.89a4.75,4.75,0,0,1-4.13,1.72H29.23c-1.95,0-3.32-.58-4.1-1.72a3.72,3.72,0,0,1-.35-3.82A6.16,6.16,0,0,1,28,45.83Z"/></clipPath><clipPath id="clip-path-2" transform="translate(0 -14.66)"><rect class="cls-2" x="1.11" width="78" height="58"/></clipPath></defs><title>Asset 19</title><g id="Layer_2" data-name="Layer 2"><g id="Layer_1-2" data-name="Layer 1"><g class="cls-3"><g class="cls-4"><rect class="cls-5" width="83.57" height="44.95"/></g></g></g></g></svg>