<svg xmlns="http://www.w3.org/2000/svg" xmlns:xlink="http://www.w3.org/1999/xlink" viewBox="0 0 47.26 44.95"><defs><style>.cls-1,.cls-2{fill:none;}.cls-1{clip-rule:evenodd;}.cls-3{clip-path:url(#clip-path);}.cls-4{clip-path:url(#clip-path-2);}.cls-5{fill:#666;}</style><clipPath id="clip-path" transform="translate(0 -14.7)"><path class="cls-1" d="M19.36,42.71l-10,4.84c-3,1.29-3.78,5.42.47,5.26H37.46c4.25.16,3.43-4,.47-5.26l-9.87-4.72c-1.13-.58-1.17-1.4-.2-2.07,2.07-1.44,3-2.57,3.24-4.87l.78-7c.55-4.87-3.94-7.45-8.27-7.33-4.37-.12-8.78,2.46-8.23,7.33l.78,7a5.92,5.92,0,0,0,1.64,3.55,16.18,16.18,0,0,0,1.68,1.4C20.26,41.42,20.33,42.28,19.36,42.71ZM8.52,45.87l8.89-4.25a7.76,7.76,0,0,1-3.08-5.5l-.78-7c-.74-6,4.64-9.59,10.06-9.44,5.5-.16,10.84,3.39,10.1,9.44l-.78,7a7.76,7.76,0,0,1-3.08,5.5l8.89,4.25a5.78,5.78,0,0,1,3.51,5.26c-.12,1.87-1.87,3.51-4.8,3.51H9.8C6.88,54.64,5.12,53,5,51.13A5.78,5.78,0,0,1,8.52,45.87Z"/></clipPath><clipPath id="clip-path-2" transform="translate(0 -14.7)"><rect class="cls-2" x="1.07" width="46" height="58"/></clipPath></defs><title>Asset 17</title><g id="Layer_2" data-name="Layer 2"><g id="Layer_1-2" data-name="Layer 1"><g class="cls-3"><g class="cls-4"><rect class="cls-5" width="47.26" height="44.95"/></g></g></g></g></svg>