<svg xmlns="http://www.w3.org/2000/svg" xmlns:xlink="http://www.w3.org/1999/xlink" viewBox="0 0 43.6 43.6"><defs><style>.cls-1,.cls-2{fill:none;}.cls-1{clip-rule:evenodd;}.cls-3{clip-path:url(#clip-path);}.cls-4{clip-path:url(#clip-path-2);}.cls-5{fill:#666;}</style><clipPath id="clip-path" transform="translate(0 -15.21)"><path class="cls-1" d="M23.72,34.52H13.07c-.35,0-.51-.16-.51-.51v-.86c0-.35.16-.51.51-.51H23.72c.35,0,.51.16.51.51V34C24.23,34.36,24.07,34.52,23.72,34.52ZM18.42,22a11,11,0,0,0-8.15,3.39,11.49,11.49,0,0,0,0,16.3,11,11,0,0,0,8.15,3.39,11.14,11.14,0,0,0,8.15-3.39,11.58,11.58,0,0,0,0-16.3A11.14,11.14,0,0,0,18.42,22ZM37.14,53.63l-9.94-9.95A12.76,12.76,0,0,1,18.42,47a12.93,12.93,0,0,1-9.48-3.94A12.93,12.93,0,0,1,5,33.58a12.93,12.93,0,0,1,3.94-9.48,12.89,12.89,0,0,1,9.48-3.9,12.89,12.89,0,0,1,9.48,3.9,12.89,12.89,0,0,1,3.9,9.48,13.22,13.22,0,0,1-3.28,8.81l9.91,9.91a.48.48,0,0,1,0,.74l-.58.59A.44.44,0,0,1,37.14,53.63Z"/></clipPath><clipPath id="clip-path-2" transform="translate(0 -15.21)"><rect class="cls-2" x="1.1" width="46" height="58"/></clipPath></defs><title>Asset 16</title><g id="Layer_2" data-name="Layer 2"><g id="Layer_1-2" data-name="Layer 1"><g class="cls-3"><g class="cls-4"><rect class="cls-5" width="43.6" height="43.6"/></g></g></g></g></svg>