<svg xmlns="http://www.w3.org/2000/svg" xmlns:xlink="http://www.w3.org/1999/xlink" viewBox="0 0 47.09 40.58"><defs><style>.cls-1,.cls-2{fill:none;}.cls-1{clip-rule:evenodd;}.cls-3{clip-path:url(#clip-path);}.cls-4{clip-path:url(#clip-path-2);}.cls-5{fill:#666;}</style><clipPath id="clip-path" transform="translate(0 -16.81)"><path class="cls-1" d="M30.51,42.13c.27.23.27.47,0,.74L30,43.3a.48.48,0,0,1-.74,0L25,39l0,12.91c0,.35-.16.51-.51.51H23.6c-.35,0-.51-.16-.51-.51V39L18.73,43.3a.44.44,0,0,1-.7,0l-.47-.43c-.27-.27-.27-.51,0-.74l5.69-5.69a1,1,0,0,1,1.52,0ZM14.28,46.49c0,.35-.2.51-.55.51C8.24,47,5,45.21,5,39.9a7.36,7.36,0,0,1,1.87-5,6,6,0,0,1,4.68-2.11h.35a10.8,10.8,0,0,1,2.54-7.06A11,11,0,0,1,21,22a10.92,10.92,0,0,1,7.37,1,10.47,10.47,0,0,1,5,5.54,8.73,8.73,0,0,1,8.81,9A10.11,10.11,0,0,1,40,44a7.76,7.76,0,0,1-5.65,3,.47.47,0,0,1-.59-.47l-.08-.82c0-.35.12-.55.47-.55a6.07,6.07,0,0,0,4.48-2.46,8.39,8.39,0,0,0,1.6-5.11,7,7,0,0,0-2-5.11,7.22,7.22,0,0,0-5.11-2.07,1.59,1.59,0,0,1-1.56-1.05,9,9,0,0,0-4.09-4.68,9.37,9.37,0,0,0-6.2-.82A8.8,8.8,0,0,0,15.84,27a9.42,9.42,0,0,0-2.11,6,1.71,1.71,0,0,1-1.83,1.72,4.19,4.19,0,0,0-3.59,1.44A5.4,5.4,0,0,0,6.87,39.9c0,4.17,2.34,5.23,6.86,5.26.35,0,.55.16.55.51Z"/></clipPath><clipPath id="clip-path-2" transform="translate(0 -16.81)"><rect class="cls-2" x="1.1" width="46" height="58"/></clipPath></defs><title>Asset 13</title><g id="Layer_2" data-name="Layer 2"><g id="Layer_1-2" data-name="Layer 1"><g class="cls-3"><g class="cls-4"><rect class="cls-5" width="47.09" height="40.58"/></g></g></g></g></svg>