<svg xmlns="http://www.w3.org/2000/svg" xmlns:xlink="http://www.w3.org/1999/xlink" viewBox="0 0 48.73 38.7"><defs><style>.cls-1,.cls-2{fill:none;}.cls-1{clip-rule:evenodd;}.cls-3{clip-path:url(#clip-path);}.cls-4{clip-path:url(#clip-path-2);}.cls-5{fill:#666;}</style><clipPath id="clip-path" transform="translate(0 -17.98)"><path class="cls-1" d="M30.27,32.18V29.45a4.61,4.61,0,0,0-4.6-4.6H11.43a4.61,4.61,0,0,0-4.6,4.6V45.24a4.61,4.61,0,0,0,4.6,4.6H25.67a4.61,4.61,0,0,0,4.6-4.6V42.51A1.73,1.73,0,0,1,32.81,41l9,4.72V28.9l-8.93,4.72A1.72,1.72,0,0,1,30.27,32.18Zm1.87-2.73v2.5l9.09-4.8a1.73,1.73,0,0,1,2.5,1.56V45.95a1.71,1.71,0,0,1-2.5,1.52l-9.09-4.76v2.53a6.22,6.22,0,0,1-1.91,4.56,6.34,6.34,0,0,1-4.56,1.87H11.43a6.18,6.18,0,0,1-4.52-1.87A6.22,6.22,0,0,1,5,45.24V29.45A6.46,6.46,0,0,1,11.43,23H25.67a6.34,6.34,0,0,1,4.56,1.87A6.24,6.24,0,0,1,32.14,29.45Z"/></clipPath><clipPath id="clip-path-2" transform="translate(0 -17.98)"><rect class="cls-2" x="1.1" width="46" height="58"/></clipPath></defs><title>Asset 23</title><g id="Layer_2" data-name="Layer 2"><g id="Layer_1-2" data-name="Layer 1"><g class="cls-3"><g class="cls-4"><rect class="cls-5" width="48.73" height="38.7"/></g></g></g></g></svg>