<svg xmlns="http://www.w3.org/2000/svg" xmlns:xlink="http://www.w3.org/1999/xlink" viewBox="0 0 44.24 41.04"><defs><style>.cls-1,.cls-2{fill:none;}.cls-1{clip-rule:evenodd;}.cls-3{clip-path:url(#clip-path);}.cls-4{clip-path:url(#clip-path-2);}.cls-5{fill:#666;}</style><clipPath id="clip-path" transform="translate(0 -16.45)"><path class="cls-1" d="M27,34a7,7,0,0,0-9.75,0,6.87,6.87,0,0,0,0,9.75,6.6,6.6,0,0,0,4.88,2,6.6,6.6,0,0,0,4.88-2A7,7,0,0,0,27,34Zm-4.87-3.86a8.71,8.71,0,0,1,6.16,2.54,8.59,8.59,0,0,1,2.57,6.12,8.66,8.66,0,0,1-8.74,8.81A8.24,8.24,0,0,1,16,45.05a8.3,8.3,0,0,1-2.57-6.16,8.72,8.72,0,0,1,8.74-8.77Zm3-6.79H19c-1.76.12-2.5.39-3.08,1.44a7,7,0,0,0-.86,2.15c-.19.58-.31,1-.39,1.29H11a4.21,4.21,0,0,0-4.21,4.17V46.45A4.3,4.3,0,0,0,11,50.67H33.2a4.21,4.21,0,0,0,4.17-4.21V32.38A4.18,4.18,0,0,0,33.2,28.2h-3.7c-.12-.39-.66-2.26-.78-2.54s-.23-.51-.43-.94C27.66,23.68,26.88,23.48,25.16,23.33ZM19,21.45h6.12a5.26,5.26,0,0,1,3.71,1.05,9.52,9.52,0,0,1,2,3.82H33.2a6,6,0,0,1,6,6V46.45a6,6,0,0,1-6,6H11a5.77,5.77,0,0,1-4.25-1.75A5.8,5.8,0,0,1,5,46.45V32.38a5.8,5.8,0,0,1,1.79-4.29A5.77,5.77,0,0,1,11,26.33h2.34a9.55,9.55,0,0,1,2-3.82A5.26,5.26,0,0,1,19,21.45Z"/></clipPath><clipPath id="clip-path-2" transform="translate(0 -16.45)"><rect class="cls-2" x="1.1" width="46" height="58"/></clipPath></defs><title>Asset 22</title><g id="Layer_2" data-name="Layer 2"><g id="Layer_1-2" data-name="Layer 1"><g class="cls-3"><g class="cls-4"><rect class="cls-5" width="44.24" height="41.04"/></g></g></g></g></svg>