<svg xmlns="http://www.w3.org/2000/svg" xmlns:xlink="http://www.w3.org/1999/xlink" viewBox="0 0 44.16 44.9"><defs><style>.cls-1,.cls-2{fill:none;}.cls-1{clip-rule:evenodd;}.cls-3{clip-path:url(#clip-path);}.cls-4{clip-path:url(#clip-path-2);}.cls-5{fill:#666;}</style><clipPath id="clip-path" transform="translate(0 -15.74)"><path class="cls-1" d="M13.66,40.94V53.81H30.47V40.94ZM31.25,32a1.38,1.38,0,1,1-1.36,1.36A1.39,1.39,0,0,1,31.25,32Zm1.09,7v7.37h5V34.55A4.53,4.53,0,0,0,32.69,30H11.43A4.35,4.35,0,0,0,8.2,31.31a4.45,4.45,0,0,0-1.37,3.24V46.44h5V39.07Zm-1.87-11v-5.5H13.66v5.5Zm-17-7.37H30.66a1.72,1.72,0,0,1,1.68,1.68v5.69h.35A6.34,6.34,0,0,1,37.25,30a6.22,6.22,0,0,1,1.91,4.56V46.6a1.72,1.72,0,0,1-1.68,1.72H32.34V54a1.69,1.69,0,0,1-1.68,1.68H13.5A1.7,1.7,0,0,1,11.79,54V48.31H6.68A1.7,1.7,0,0,1,5,46.6V34.55A6.22,6.22,0,0,1,6.91,30a6.18,6.18,0,0,1,4.52-1.87h.35V22.42A1.72,1.72,0,0,1,13.5,20.74Z"/></clipPath><clipPath id="clip-path-2" transform="translate(0 -15.74)"><rect class="cls-2" x="1.1" width="46" height="58"/></clipPath></defs><title>Asset 26</title><g id="Layer_2" data-name="Layer 2"><g id="Layer_1-2" data-name="Layer 1"><g class="cls-3"><g class="cls-4"><rect class="cls-5" width="44.16" height="44.9"/></g></g></g></g></svg>