<svg xmlns="http://www.w3.org/2000/svg" xmlns:xlink="http://www.w3.org/1999/xlink" viewBox="0 0 42.92 42.47"><defs><style>.cls-1,.cls-2{fill:none;}.cls-1{clip-rule:evenodd;}.cls-3{clip-path:url(#clip-path);}.cls-4{clip-path:url(#clip-path-2);}.cls-5{fill:#666;}</style><clipPath id="clip-path" transform="translate(0 -16.53)"><path class="cls-1" d="M24.15,41.15H13c-.35,0-.51-.16-.51-.51v-.82c0-.35.16-.51.51-.51H24.15c.35,0,.51.16.51.51v.82C24.66,41,24.5,41.15,24.15,41.15Zm5.77-5.65H13c-.35,0-.51-.16-.51-.51v-.86c0-.35.16-.51.51-.51h17c.35,0,.51.16.51.51V35C30.43,35.34,30.27,35.49,29.92,35.49Zm0-5.73H13c-.35,0-.51-.16-.51-.51v-.82c0-.35.16-.51.51-.51h17c.35,0,.51.16.51.51v.82C30.43,29.61,30.27,29.76,29.92,29.76ZM31,23.37H11.86a4.81,4.81,0,0,0-3.51,1.48A4.89,4.89,0,0,0,6.87,28.4V40.1c0,3.08,2.11,4.88,5.19,5.23v6.75l7.45-6.94H31a5.06,5.06,0,0,0,5-5V28.4a5.06,5.06,0,0,0-5-5ZM11.86,21.53H31a6.71,6.71,0,0,1,4.88,2,6.6,6.6,0,0,1,2,4.88V40.1A6.92,6.92,0,0,1,31,47H20.21l-7,6.51a1.74,1.74,0,0,1-1.91.35,1.64,1.64,0,0,1-1.09-1.64V46.77A6.89,6.89,0,0,1,5,40.1V28.4a6.6,6.6,0,0,1,2-4.87A6.56,6.56,0,0,1,11.86,21.53Z"/></clipPath><clipPath id="clip-path-2" transform="translate(0 -16.53)"><rect class="cls-2" x="1.1" width="46" height="58"/></clipPath></defs><title>Asset 29</title><g id="Layer_2" data-name="Layer 2"><g id="Layer_1-2" data-name="Layer 1"><g class="cls-3"><g class="cls-4"><rect class="cls-5" width="42.92" height="42.47"/></g></g></g></g></svg>