<svg xmlns="http://www.w3.org/2000/svg" xmlns:xlink="http://www.w3.org/1999/xlink" viewBox="0 0 39.75 42.51"><defs><style>.cls-1,.cls-2{fill:none;}.cls-1{clip-rule:evenodd;}.cls-3{clip-path:url(#clip-path);}.cls-4{clip-path:url(#clip-path-2);}.cls-5{fill:#666;}</style><clipPath id="clip-path" transform="translate(0 -15.82)"><path class="cls-1" d="M24.33,30.35q.41-.41,0-.7L23.75,29A.48.48,0,0,0,23,29L10.76,41.31c-4.37,4.17,2.11,10.53,6.32,6.32L32.56,32.14C39,25.71,29.79,16.62,23.44,23L7.8,38.58c-8.35,8.35,3.86,20.16,12,12L32.25,38.15a.48.48,0,0,0,0-.74l-.62-.58a.44.44,0,0,0-.7,0L18.48,49.26c-6.47,6.47-16-2.77-9.36-9.36l15.6-15.6a4.71,4.71,0,0,1,5.69-1.09,4.63,4.63,0,0,1,.82,7.61L15.75,46.3A2.62,2.62,0,1,1,12,42.59Z"/></clipPath><clipPath id="clip-path-2" transform="translate(0 -15.82)"><rect class="cls-2" x="1.09" width="46" height="58"/></clipPath></defs><title>Asset 20</title><g id="Layer_2" data-name="Layer 2"><g id="Layer_1-2" data-name="Layer 1"><g class="cls-3"><g class="cls-4"><rect class="cls-5" width="39.75" height="42.51"/></g></g></g></g></svg>