<svg xmlns="http://www.w3.org/2000/svg" xmlns:xlink="http://www.w3.org/1999/xlink" viewBox="0 0 37.73 47.12"><defs><style>.cls-1,.cls-2{fill:none;}.cls-1{clip-rule:evenodd;}.cls-3{clip-path:url(#clip-path);}.cls-4{clip-path:url(#clip-path-2);}.cls-5{fill:#666;}</style><clipPath id="clip-path" transform="translate(0 -14)"><path class="cls-1" d="M18.84,28A4.86,4.86,0,0,0,14,32.84a4.54,4.54,0,0,0,1.44,3.43,4.51,4.51,0,0,0,3.39,1.44,4.86,4.86,0,0,0,4.88-4.87A4.8,4.8,0,0,0,18.84,28Zm-4.72.08a6.48,6.48,0,0,1,4.72-1.95,6.63,6.63,0,0,1,4.76,1.95,6.75,6.75,0,0,1-4.76,11.51,6.37,6.37,0,0,1-4.72-2,6.69,6.69,0,0,1,0-9.52ZM8.9,39.71l9.91,14.47,9.79-14.31a12.21,12.21,0,0,0,2.26-7,11.51,11.51,0,0,0-3.51-8.46,11.66,11.66,0,0,0-8.5-3.51,11.51,11.51,0,0,0-8.46,3.51,11.51,11.51,0,0,0-3.51,8.46A11.85,11.85,0,0,0,8.9,39.71Zm21.26,1.17L20.25,55.38a1.75,1.75,0,0,1-2.85,0l-10-14.66A13.43,13.43,0,0,1,5,32.84a13.37,13.37,0,0,1,4.06-9.79A13.37,13.37,0,0,1,18.84,19a13.39,13.39,0,0,1,9.83,4.06,13.37,13.37,0,0,1,4.06,9.79A14,14,0,0,1,30.15,40.88Z"/></clipPath><clipPath id="clip-path-2" transform="translate(0 -14)"><rect class="cls-2" x="1.1" width="46" height="58"/></clipPath></defs><title>Asset 21</title><g id="Layer_2" data-name="Layer 2"><g id="Layer_1-2" data-name="Layer 1"><g class="cls-3"><g class="cls-4"><rect class="cls-5" width="37.73" height="47.12"/></g></g></g></g></svg>