<svg xmlns="http://www.w3.org/2000/svg" xmlns:xlink="http://www.w3.org/1999/xlink" viewBox="0 0 42.92 42.47"><defs><style>.cls-1,.cls-2{fill:none;}.cls-1{clip-rule:evenodd;}.cls-3{clip-path:url(#clip-path);}.cls-4{clip-path:url(#clip-path-2);}.cls-5{fill:#666;}</style><clipPath id="clip-path" transform="translate(0 -16.53)"><path class="cls-1" d="M31,23.37H11.9a5.06,5.06,0,0,0-5,5V40.1c0,3,2.11,4.8,5.19,5.15v6.83l7.45-6.94H31a5.06,5.06,0,0,0,5-5V28.4a5.06,5.06,0,0,0-5-5ZM11.9,21.53H31a6.71,6.71,0,0,1,4.88,2,6.6,6.6,0,0,1,2,4.88V40.1A6.92,6.92,0,0,1,31,47H20.25l-7,6.51a1.74,1.74,0,0,1-1.91.35,1.64,1.64,0,0,1-1.09-1.64V46.77A6.84,6.84,0,0,1,5,40.1V28.4a6.6,6.6,0,0,1,2-4.87A6.71,6.71,0,0,1,11.9,21.53Z"/></clipPath><clipPath id="clip-path-2" transform="translate(0 -16.53)"><rect class="cls-2" x="1.1" width="46" height="58"/></clipPath></defs><title>Asset 27</title><g id="Layer_2" data-name="Layer 2"><g id="Layer_1-2" data-name="Layer 1"><g class="cls-3"><g class="cls-4"><rect class="cls-5" width="42.92" height="42.47"/></g></g></g></g></svg>