<svg xmlns="http://www.w3.org/2000/svg" xmlns:xlink="http://www.w3.org/1999/xlink" viewBox="0 0 34.18 44.28"><defs><style>.cls-1,.cls-2{fill:none;}.cls-1{clip-rule:evenodd;}.cls-3{clip-path:url(#clip-path);}.cls-4{clip-path:url(#clip-path-2);}.cls-5{fill:#666;}</style><clipPath id="clip-path" transform="translate(0 -14.97)"><path class="cls-1" d="M18,48.6v3.82h5.34c.35,0,.51.16.51.51v.82c0,.35-.16.51-.51.51H10.81c-.35,0-.51-.16-.51-.51v-.82c0-.35.16-.51.51-.51h5.34V48.6a12.13,12.13,0,0,1-7.88-3.39A11,11,0,0,1,5,36.82V32.3c0-.35.16-.51.51-.51h.86c.35,0,.51.16.51.51v4.52c0,13.3,20.48,13.3,20.48,0V32.3c0-.35.16-.51.51-.51h.82c.35,0,.51.16.51.51v4.52a11.07,11.07,0,0,1-3.24,8.38A12.31,12.31,0,0,1,18,48.6ZM12.1,26.76V36.82a4.53,4.53,0,0,0,1.56,3.67,5.15,5.15,0,0,0,6.9,0,4.53,4.53,0,0,0,1.56-3.67V26.76a4.53,4.53,0,0,0-1.56-3.67,5.15,5.15,0,0,0-6.9,0A4.53,4.53,0,0,0,12.1,26.76ZM10.23,36.82V26.76c0-9,13.73-9,13.73,0V36.82C24,45.87,10.23,45.87,10.23,36.82Z"/></clipPath><clipPath id="clip-path-2" transform="translate(0 -14.97)"><rect class="cls-2" x="1.1" width="46" height="58"/></clipPath></defs><title>Asset 24</title><g id="Layer_2" data-name="Layer 2"><g id="Layer_1-2" data-name="Layer 1"><g class="cls-3"><g class="cls-4"><rect class="cls-5" width="34.18" height="44.28"/></g></g></g></g></svg>