<svg xmlns="http://www.w3.org/2000/svg" xmlns:xlink="http://www.w3.org/1999/xlink" viewBox="0 0 51.11 45.37"><defs><style>.cls-1,.cls-2{fill:none;}.cls-1{clip-rule:evenodd;}.cls-3{clip-path:url(#clip-path);}.cls-4{clip-path:url(#clip-path-2);}.cls-5{fill:#666;}</style><clipPath id="clip-path" transform="translate(0 -14.7)"><path class="cls-1" d="M15.72,36.82V29.88H10.89a4,4,0,0,0-4,4.06v9.71c0,2.5,1.75,4,4.29,4.33v5l5.69-5.26h10c2.5,0,4-1.91,4-4.45H22.12a6,6,0,0,1-4.49-1.91A6,6,0,0,1,15.72,36.82Zm24-15.25H22.12A4.3,4.3,0,0,0,19,22.9a4.37,4.37,0,0,0-1.36,3.2V36.82A4.37,4.37,0,0,0,19,40a4.3,4.3,0,0,0,3.16,1.33H32.73l6.75,6.28V41.54c3.16-.43,4.76-2,4.76-4.72V26.1A4.53,4.53,0,0,0,39.71,21.57ZM38.42,49.18l-5.69-5.3a5.86,5.86,0,0,1-5.89,5.65H17.6L12.06,54.6a1.48,1.48,0,0,1-1.75.31,1.53,1.53,0,0,1-1-1.52V49.3A5.93,5.93,0,0,1,5,43.65V33.93a5.74,5.74,0,0,1,1.75-4.21A5.69,5.69,0,0,1,10.89,28h4.84V26.1a6.07,6.07,0,0,1,1.91-4.52,6.1,6.1,0,0,1,4.49-1.87H39.71a6.39,6.39,0,0,1,6.4,6.4V36.82A6.38,6.38,0,0,1,41.31,43v5a1.69,1.69,0,0,1-2.89,1.25Z"/></clipPath><clipPath id="clip-path-2" transform="translate(0 -14.7)"><rect class="cls-2" x="1.1" width="46" height="58"/></clipPath></defs><title>Asset 28</title><g id="Layer_2" data-name="Layer 2"><g id="Layer_1-2" data-name="Layer 1"><g class="cls-3"><g class="cls-4"><rect class="cls-5" width="51.11" height="45.37"/></g></g></g></g></svg>