<svg xmlns="http://www.w3.org/2000/svg" xmlns:xlink="http://www.w3.org/1999/xlink" viewBox="0 0 32.39 45.08"><defs><style>.cls-1,.cls-2{fill:none;}.cls-1{clip-rule:evenodd;}.cls-3{clip-path:url(#clip-path);}.cls-4{clip-path:url(#clip-path-2);}.cls-5{fill:#666;}</style><clipPath id="clip-path" transform="translate(0 -14.45)"><path class="cls-1" d="M17.13,26.29v6.28c0,.35-.16.55-.51.55h-.86c-.35,0-.51-.2-.51-.55V26.29c0-.35.16-.51.51-.51h.86C17,25.78,17.13,25.94,17.13,26.29Zm8.39,17.16V30.39c0-12.17-18.64-12.17-18.64,0V43.45C6.87,55.7,25.51,55.77,25.51,43.45Zm1.87-13.07V43.45c0,7.33-5.58,11.08-11.19,11.08S5,50.78,5,43.45V30.39C5,15.8,27.39,15.8,27.39,30.39Z"/></clipPath><clipPath id="clip-path-2" transform="translate(0 -14.45)"><rect class="cls-2" x="1.1" width="46" height="58"/></clipPath></defs><title>Asset 25</title><g id="Layer_2" data-name="Layer 2"><g id="Layer_1-2" data-name="Layer 1"><g class="cls-3"><g class="cls-4"><rect class="cls-5" width="32.39" height="45.08"/></g></g></g></g></svg>