<svg xmlns="http://www.w3.org/2000/svg" xmlns:xlink="http://www.w3.org/1999/xlink" viewBox="0 0 47.91 40.97"><defs><style>.cls-1,.cls-2{fill:none;}.cls-1{clip-rule:evenodd;}.cls-3{clip-path:url(#clip-path);}.cls-4{clip-path:url(#clip-path-2);}.cls-5{fill:#666;}</style><clipPath id="clip-path" transform="translate(0 -17.57)"><path class="cls-1" d="M41.07,51.67V40.47H30.78a6.77,6.77,0,0,1-8.66,5.65,6.47,6.47,0,0,1-5-5.65H6.83V51.67ZM12.18,24.44l-5,14.16h10A1.7,1.7,0,0,1,19,40.12a4.57,4.57,0,0,0,1.76,3.28,5.06,5.06,0,0,0,6.47,0,4.57,4.57,0,0,0,1.76-3.28,1.75,1.75,0,0,1,1.72-1.52h10L35.77,24.44ZM5,39.38l5.46-15.64a1.55,1.55,0,0,1,1.6-1.17H35.85a1.55,1.55,0,0,1,1.6,1.17l5.46,15.64V51.82a1.71,1.71,0,0,1-1.72,1.72H6.72A1.71,1.71,0,0,1,5,51.82Z"/></clipPath><clipPath id="clip-path-2" transform="translate(0 -17.57)"><rect class="cls-2" x="1.1" width="46" height="58"/></clipPath></defs><title>Asset 34</title><g id="Layer_2" data-name="Layer 2"><g id="Layer_1-2" data-name="Layer 1"><g class="cls-3"><g class="cls-4"><rect class="cls-5" width="47.91" height="40.97"/></g></g></g></g></svg>