<svg xmlns="http://www.w3.org/2000/svg" xmlns:xlink="http://www.w3.org/1999/xlink" viewBox="0 0 40.61 41.71"><defs><style>.cls-1,.cls-2{fill:none;}.cls-1{clip-rule:evenodd;}.cls-3{clip-path:url(#clip-path);}.cls-4{clip-path:url(#clip-path-2);}.cls-5{fill:#666;}</style><clipPath id="clip-path" transform="translate(0 -16.38)"><path class="cls-1" d="M28.2,45.63a3.28,3.28,0,1,0,4.6,4.68,3.28,3.28,0,1,0-4.6-4.68ZM7.85,34.91c-2.11,1.83-.51,5.77,2.3,5.58a3.25,3.25,0,0,0,3.28-3.28C13.62,34.44,9.68,32.84,7.85,34.91ZM28.2,24.18a3.1,3.1,0,0,0-1,2.3,3.28,3.28,0,1,0,6.55,0C33.9,23.72,30.08,22,28.2,24.18Zm5.93-1.33a5.07,5.07,0,0,1,1.48,3.63,4.94,4.94,0,0,1-1.48,3.63,5.11,5.11,0,0,1-7.8-.62L14.91,35.38a4.65,4.65,0,0,1,.35,1.83A6,6,0,0,1,15,38.89l11.47,5.89a4.86,4.86,0,0,1,4-1.95,4.94,4.94,0,0,1,3.63,1.48,5.23,5.23,0,0,1,0,7.29A5.15,5.15,0,0,1,25.36,48a4.54,4.54,0,0,1,.27-1.56L14.09,40.49a4.91,4.91,0,0,1-3.94,1.87,4.83,4.83,0,0,1-3.63-1.52A4.83,4.83,0,0,1,5,37.21a5.13,5.13,0,0,1,5.15-5.11,5,5,0,0,1,3.78,1.68l11.62-6a5.45,5.45,0,0,1-.2-1.33,5.16,5.16,0,0,1,8.78-3.63Z"/></clipPath><clipPath id="clip-path-2" transform="translate(0 -16.38)"><rect class="cls-2" x="1.1" width="46" height="58"/></clipPath></defs><title>Asset 39</title><g id="Layer_2" data-name="Layer 2"><g id="Layer_1-2" data-name="Layer 1"><g class="cls-3"><g class="cls-4"><rect class="cls-5" width="40.61" height="41.71"/></g></g></g></g></svg>