<svg xmlns="http://www.w3.org/2000/svg" xmlns:xlink="http://www.w3.org/1999/xlink" viewBox="0 0 44.91 44.89"><defs><style>.cls-1,.cls-2{fill:none;}.cls-1{clip-rule:evenodd;}.cls-3{clip-path:url(#clip-path);}.cls-4{clip-path:url(#clip-path-2);}.cls-5{fill:#666;}</style><clipPath id="clip-path" transform="translate(0 -14.64)"><path class="cls-1" d="M15.53,52.5V35.18H6.83V52.5ZM17.4,38V50.28a21.21,21.21,0,0,1,4.13,1.29,13.13,13.13,0,0,0,4.41,1.09h8.42a1.24,1.24,0,0,0,1.25-1,1.37,1.37,0,0,0-.39-1.6,1,1,0,0,1-.39-1.21,1,1,0,0,1,1-.86A1.2,1.2,0,0,0,37,46.8a1.74,1.74,0,0,0-.55-1.68,1.16,1.16,0,0,1,0-1.72c.31-.31,1-.27,1.29-.78A2.45,2.45,0,0,0,38,41a1.36,1.36,0,0,0-.86-1.21,1.21,1.21,0,0,1-.23-2.15,1.71,1.71,0,0,0,.62-2c-.2-1-.7-1.44-1.52-1.44H28.52a1.19,1.19,0,0,1-1.13-1.72A19,19,0,0,0,28.75,25a4.44,4.44,0,0,0-1-3.08q-1-1-1.4.47a27,27,0,0,1-4.8,10.37Zm0-3,2.73-3.39a25.55,25.55,0,0,0,4.45-9.71,2.62,2.62,0,0,1,1.87-2.15,2.52,2.52,0,0,1,2.61.82,5.63,5.63,0,0,1,1.48,3.51,16.46,16.46,0,0,1-.12,4.41,28.48,28.48,0,0,1-1,3.9H36A3.49,3.49,0,0,1,39.48,36a5,5,0,0,1-.78,2.57,3.49,3.49,0,0,1,1.21,3.12,3.37,3.37,0,0,1-1.56,2.93,3.47,3.47,0,0,1,.39,2.73,3.14,3.14,0,0,1-1.6,2.18,3.27,3.27,0,0,1,0,3.28,2.92,2.92,0,0,1-2.77,1.75H25.94a13.62,13.62,0,0,1-4.6-1.13,24.79,24.79,0,0,0-3.94-1.29v.51a1.71,1.71,0,0,1-1.72,1.72h-9A1.68,1.68,0,0,1,5,52.62V35.07a1.71,1.71,0,0,1,1.72-1.72h9A1.74,1.74,0,0,1,17.4,35Z"/></clipPath><clipPath id="clip-path-2" transform="translate(0 -14.64)"><rect class="cls-2" x="1.1" width="46" height="58"/></clipPath></defs><title>Asset 37</title><g id="Layer_2" data-name="Layer 2"><g id="Layer_1-2" data-name="Layer 1"><g class="cls-3"><g class="cls-4"><rect class="cls-5" width="44.91" height="44.89"/></g></g></g></g></svg>