<svg xmlns="http://www.w3.org/2000/svg" xmlns:xlink="http://www.w3.org/1999/xlink" viewBox="0 0 37.11 42.99"><defs><style>.cls-1,.cls-2{fill:none;}.cls-1{clip-rule:evenodd;}.cls-3{clip-path:url(#clip-path);}.cls-4{clip-path:url(#clip-path-2);}.cls-5{fill:#666;}</style><clipPath id="clip-path" transform="translate(0 -15.87)"><path class="cls-1" d="M6.83,22.94V36.66a20.94,20.94,0,0,1,9.63,1.17c1.33.51,2.69.94,4.1,1.33A13.51,13.51,0,0,0,30.27,38V24.42a14.29,14.29,0,0,1-9.95.94l-4.21-1.29q-2.28-.7-4.33-1.17A14.1,14.1,0,0,0,6.83,22.94ZM5,53.36V22.82A1.75,1.75,0,0,1,6.4,21.1a17.55,17.55,0,0,1,8.19.58c1.13.39,2.3.74,3.55,1.09,2.5.7,4.52,1.36,7.33,1.05a13.81,13.81,0,0,0,4.21-1.21,1.71,1.71,0,0,1,2.42,1.56V38.07a1.57,1.57,0,0,1-1,1.56c-6.12,3.16-10.76,1.6-14.66.12a19.34,19.34,0,0,0-9.59-1.21V53.36c0,.35-.16.51-.51.51H5.51C5.16,53.86,5,53.71,5,53.36Z"/></clipPath><clipPath id="clip-path-2" transform="translate(0 -15.87)"><rect class="cls-2" x="1.1" width="46" height="58"/></clipPath></defs><title>Asset 31</title><g id="Layer_2" data-name="Layer 2"><g id="Layer_1-2" data-name="Layer 1"><g class="cls-3"><g class="cls-4"><rect class="cls-5" width="37.11" height="42.99"/></g></g></g></g></svg>