<svg xmlns="http://www.w3.org/2000/svg" xmlns:xlink="http://www.w3.org/1999/xlink" viewBox="0 0 42.36 43.93"><defs><style>.cls-1,.cls-2{fill:none;}.cls-1{clip-rule:evenodd;}.cls-3{clip-path:url(#clip-path);}.cls-4{clip-path:url(#clip-path-2);}.cls-5{fill:#666;}</style><clipPath id="clip-path" transform="translate(0 -15.24)"><path class="cls-1" d="M33.2,37.6V52.46a1.73,1.73,0,0,1-1.72,1.72H6.72A1.73,1.73,0,0,1,5,52.46V25.71A1.73,1.73,0,0,1,6.72,24H20.56c.35,0,.51.16.51.51v.86c0,.35-.16.51-.51.51H6.87V52.34H31.32V37.6c0-.35.16-.51.51-.51h.86C33,37.09,33.2,37.25,33.2,37.6Zm2.26-12.44a4.11,4.11,0,0,0-3-3,1.28,1.28,0,0,0-1.25.27L16.31,37.25l-1.4,5.46,5.42-1.4L35.19,26.45A1.54,1.54,0,0,0,35.46,25.16Zm1.79-.31a2.92,2.92,0,0,1-.74,2.89L21.57,42.67a1.56,1.56,0,0,1-.7.39L14.63,44.7A1.42,1.42,0,0,1,12.92,43l1.6-6.28a1.63,1.63,0,0,1,.43-.7l14.9-14.9a3.07,3.07,0,0,1,2.93-.78A5.92,5.92,0,0,1,37.25,24.85Z"/></clipPath><clipPath id="clip-path-2" transform="translate(0 -15.24)"><rect class="cls-2" x="1.1" width="46" height="58"/></clipPath></defs><title>Asset 35</title><g id="Layer_2" data-name="Layer 2"><g id="Layer_1-2" data-name="Layer 1"><g class="cls-3"><g class="cls-4"><rect class="cls-5" width="42.36" height="43.93"/></g></g></g></g></svg>