<svg xmlns="http://www.w3.org/2000/svg" xmlns:xlink="http://www.w3.org/1999/xlink" viewBox="0 0 47.13 37.49"><defs><style>.cls-1,.cls-2{fill:none;}.cls-1{clip-rule:evenodd;}.cls-3{clip-path:url(#clip-path);}.cls-4{clip-path:url(#clip-path-2);}.cls-5{fill:#666;}</style><clipPath id="clip-path" transform="translate(0 -19.64)"><path class="cls-1" d="M19.47,40.16l-.55-.55L9,49.64a4.58,4.58,0,0,0,2.34.62H35.81a4.34,4.34,0,0,0,2.3-.62l-9.91-10-.55.51a5.84,5.84,0,0,1-8.19,0ZM39.4,28.34l-9.91,10,10,10a4.19,4.19,0,0,0,.82-2.54V31A4.41,4.41,0,0,0,39.4,28.34Zm-31.75,20,10-10.06L7.73,28.34A4.2,4.2,0,0,0,6.87,31V45.82A4.43,4.43,0,0,0,7.65,48.35ZM35.81,26.51H11.32a4.07,4.07,0,0,0-2.18.58L20.8,38.87a3.93,3.93,0,0,0,5.54,0L38,27.1A4.3,4.3,0,0,0,35.81,26.51ZM11.32,24.64H35.81A6.26,6.26,0,0,1,42.13,31V45.82a6.26,6.26,0,0,1-6.32,6.32H11.32A6.06,6.06,0,0,1,6.87,50.3,6.1,6.1,0,0,1,5,45.82V31a6.1,6.1,0,0,1,1.87-4.49A6.06,6.06,0,0,1,11.32,24.64Z"/></clipPath><clipPath id="clip-path-2" transform="translate(0 -19.64)"><rect class="cls-2" x="1.1" width="46" height="58"/></clipPath></defs><title>Asset 32</title><g id="Layer_2" data-name="Layer 2"><g id="Layer_1-2" data-name="Layer 1"><g class="cls-3"><g class="cls-4"><rect class="cls-5" width="47.13" height="37.49"/></g></g></g></g></svg>