<svg xmlns="http://www.w3.org/2000/svg" xmlns:xlink="http://www.w3.org/1999/xlink" viewBox="0 0 46.12 41.09"><defs><style>.cls-1,.cls-2{fill:none;}.cls-1{clip-rule:evenodd;}.cls-3{clip-path:url(#clip-path);}.cls-4{clip-path:url(#clip-path-2);}.cls-5{fill:#666;}</style><clipPath id="clip-path" transform="translate(0 -16.96)"><path class="cls-1" d="M21.8,28.51l-1.6-1.79c-3.08-3.43-6.9-3.86-10.45-1.05a7.73,7.73,0,0,0-2.85,5,6.48,6.48,0,0,0,1.83,5.46L23,51.1,37.36,36.16a6.65,6.65,0,0,0,1.83-5.42,7.72,7.72,0,0,0-2.85-5.07C32.8,22.86,29,23.29,25.9,26.72l-1.64,1.79A1.64,1.64,0,0,1,21.8,28.51Zm0,24L7.33,37.37a8.14,8.14,0,0,1-2.26-6.79,9.14,9.14,0,0,1,3.51-6.32c4.33-3.47,9.24-3,13,1.21L23,27.11l1.48-1.64c3.74-4.17,8.66-4.68,13-1.21a9.34,9.34,0,0,1,3.55,6.32,8.29,8.29,0,0,1-2.3,6.79L24.3,52.5A1.68,1.68,0,0,1,21.8,52.5Z"/></clipPath><clipPath id="clip-path-2" transform="translate(0 -16.96)"><rect class="cls-2" x="0.66" width="46" height="58"/></clipPath></defs><title>Asset 38</title><g id="Layer_2" data-name="Layer 2"><g id="Layer_1-2" data-name="Layer 1"><g class="cls-3"><g class="cls-4"><rect class="cls-5" width="46.12" height="41.09"/></g></g></g></g></svg>