<svg xmlns="http://www.w3.org/2000/svg" xmlns:xlink="http://www.w3.org/1999/xlink" viewBox="0 0 44.51 44.57"><defs><style>.cls-1,.cls-2{fill:none;}.cls-1{clip-rule:evenodd;}.cls-3{clip-path:url(#clip-path);}.cls-4{clip-path:url(#clip-path-2);}.cls-5{fill:#666;}</style><clipPath id="clip-path" transform="translate(0 -14.88)"><path class="cls-1" d="M7,52.5l7.88-2.07A10.19,10.19,0,0,0,9,44.54ZM27.4,25.59,10,43a12.07,12.07,0,0,1,6.4,6.4L33.8,32A10.22,10.22,0,0,0,27.4,25.59Zm3.32-3.28-1.87,1.83a12.48,12.48,0,0,1,6.4,6.4l1.87-1.83a2.27,2.27,0,0,0,.47-2.18,6.27,6.27,0,0,0-1.68-3,5.68,5.68,0,0,0-3-1.68A2.15,2.15,0,0,0,30.72,22.31Zm8.7,3.86a4,4,0,0,1-1,3.82L16.83,51.6a2.59,2.59,0,0,1-.78.43L7,54.41a1.61,1.61,0,0,1-2-1.95l2.3-9.09a1.74,1.74,0,0,1,.47-.82L29.39,21a4.06,4.06,0,0,1,3.82-1,8.06,8.06,0,0,1,6.2,6.2Z"/></clipPath><clipPath id="clip-path-2" transform="translate(0 -14.88)"><rect class="cls-2" x="0.88" width="46" height="58"/></clipPath></defs><title>Asset 36</title><g id="Layer_2" data-name="Layer 2"><g id="Layer_1-2" data-name="Layer 1"><g class="cls-3"><g class="cls-4"><rect class="cls-5" width="44.51" height="44.57"/></g></g></g></g></svg>