<svg xmlns="http://www.w3.org/2000/svg" xmlns:xlink="http://www.w3.org/1999/xlink" viewBox="0 0 44.55 47.41"><defs><style>.cls-1,.cls-2{fill:none;}.cls-1{clip-rule:evenodd;}.cls-3{clip-path:url(#clip-path);}.cls-4{clip-path:url(#clip-path-2);}.cls-5{fill:#666;}</style><clipPath id="clip-path" transform="translate(0 -14.17)"><path class="cls-1" d="M19.7,43.28,8.86,54.2a3.94,3.94,0,0,0,2,.55H33.63a4.28,4.28,0,0,0,2-.55L24.77,43.28a3.44,3.44,0,0,0-2.54-1A3.38,3.38,0,0,0,19.7,43.28Zm17.2-8.7-9.09,9.16L37,52.91a3.76,3.76,0,0,0,.7-2.22V36.92A3.76,3.76,0,0,0,36.9,34.58ZM16.66,43.71l-9-9.13a3.76,3.76,0,0,0-.78,2.34V50.69a4.43,4.43,0,0,0,.66,2.22Zm-4.52-7.22V29.94L8.86,33.22Zm20.24-6.63v6.67l3.28-3.32ZM14,26.08V38.37l4,4,.43-.39a5.23,5.23,0,0,1,3.86-1.56A5.23,5.23,0,0,1,26.1,42l.43.43,4-4V26.08Zm5.77-3.86-2,2h9l-1.95-2C23.1,20.54,21.42,20.54,19.74,22.22ZM32.38,26v1.29l5.11,5.19a6.31,6.31,0,0,1,2.07,4.49V50.69a5.93,5.93,0,0,1-5.93,5.89H10.89A5.86,5.86,0,0,1,5,50.69V36.92a6.2,6.2,0,0,1,1.91-4.41l5.23-5.23V26a1.7,1.7,0,0,1,1.64-1.75h1.44L18.38,21c2.38-2.38,5.34-2.42,7.72,0l3.28,3.28H30.7A1.73,1.73,0,0,1,32.38,26Z"/></clipPath><clipPath id="clip-path-2" transform="translate(0 -14.17)"><rect class="cls-2" x="1.1" width="46" height="58"/></clipPath></defs><title>Asset 33</title><g id="Layer_2" data-name="Layer 2"><g id="Layer_1-2" data-name="Layer 1"><g class="cls-3"><g class="cls-4"><rect class="cls-5" width="44.55" height="47.41"/></g></g></g></g></svg>