<svg xmlns="http://www.w3.org/2000/svg" xmlns:xlink="http://www.w3.org/1999/xlink" viewBox="0 0 45.54 43.65"><defs><style>.cls-1,.cls-2{fill:none;}.cls-1{clip-rule:evenodd;}.cls-3{clip-path:url(#clip-path);}.cls-4{clip-path:url(#clip-path-2);}.cls-5{fill:#666;}</style><clipPath id="clip-path" transform="translate(0 -15.41)"><path class="cls-1" d="M22.78,22.31,10.84,34.83V52.19h6.59V41.11a1.71,1.71,0,0,1,1.72-1.72h7.29a1.71,1.71,0,0,1,1.72,1.72V52.19h6.59V34.83ZM39,39.32l-2.42-2.54V52.34a1.74,1.74,0,0,1-1.76,1.72H28a1.73,1.73,0,0,1-1.72-1.72V41.23h-7V52.34a1.73,1.73,0,0,1-1.72,1.72h-6.9A1.73,1.73,0,0,1,9,52.34V36.78L6.55,39.32a.46.46,0,0,1-.7,0l-.62-.59c-.27-.19-.31-.43,0-.7L21.57,20.91a1.77,1.77,0,0,1,2.46,0L40.4,38.07c.2.27.2.51,0,.7l-.62.59C39.47,39.55,39.23,39.55,39,39.32Z"/></clipPath><clipPath id="clip-path-2" transform="translate(0 -15.41)"><rect class="cls-2" x="0.7" width="46" height="58"/></clipPath></defs><title>Asset 30</title><g id="Layer_2" data-name="Layer 2"><g id="Layer_1-2" data-name="Layer 1"><g class="cls-3"><g class="cls-4"><rect class="cls-5" width="45.54" height="43.65"/></g></g></g></g></svg>