<svg xmlns="http://www.w3.org/2000/svg" xmlns:xlink="http://www.w3.org/1999/xlink" viewBox="0 0 47.21 45.18"><defs><style>.cls-1,.cls-2{fill:none;}.cls-1{clip-rule:evenodd;}.cls-3{clip-path:url(#clip-path);}.cls-4{clip-path:url(#clip-path-2);}.cls-5{fill:#666;}</style><clipPath id="clip-path" transform="translate(0 -14.7)"><path class="cls-1" d="M19.74,41.31V37.91H6.87V48a5.06,5.06,0,0,0,5,5H35.34a5.06,5.06,0,0,0,5-5V37.91H27.5v3.39a1.81,1.81,0,0,1-1.79,1.79H21.5A1.78,1.78,0,0,1,19.74,41.31Zm6.08,0V34.05s0-.08-.12-.08H21.5a.08.08,0,0,0-.08.08v7.25c0,.08,0,.12.08.12h4.21A.1.1,0,0,0,25.83,41.31Zm9.52-13.92H11.9a5.06,5.06,0,0,0-5,5V36H19.74v-2A1.75,1.75,0,0,1,21.5,32.3h4.21a1.78,1.78,0,0,1,1.79,1.76v2H40.37V32.41a5.06,5.06,0,0,0-5-5ZM18.26,25.55H29v-.47c0-2.34-1.13-3.51-3.43-3.51h-3.9q-3.39,0-3.39,3.51Zm-6.36,0h4.49v-.47c0-3.32,2-5.38,5.26-5.38h3.9c3.32,0,5.26,2.07,5.26,5.38v.47h4.52a6.79,6.79,0,0,1,6.86,6.86V48a6.71,6.71,0,0,1-2,4.88,6.6,6.6,0,0,1-4.87,2H11.9a6.6,6.6,0,0,1-4.88-2A6.6,6.6,0,0,1,5,48V32.41a6.6,6.6,0,0,1,2-4.87A6.71,6.71,0,0,1,11.9,25.55Z"/></clipPath><clipPath id="clip-path-2" transform="translate(0 -14.7)"><rect class="cls-2" x="1.1" width="46" height="58"/></clipPath></defs><title>Asset 42</title><g id="Layer_2" data-name="Layer 2"><g id="Layer_1-2" data-name="Layer 1"><g class="cls-3"><g class="cls-4"><rect class="cls-5" width="47.21" height="45.18"/></g></g></g></g></svg>