<svg xmlns="http://www.w3.org/2000/svg" xmlns:xlink="http://www.w3.org/1999/xlink" viewBox="0 0 45.72 43.5"><defs><style>.cls-1,.cls-2{fill:none;}.cls-1{clip-rule:evenodd;}.cls-3{clip-path:url(#clip-path);}.cls-4{clip-path:url(#clip-path-2);}.cls-5{fill:#666;}</style><clipPath id="clip-path" transform="translate(0 -15.21)"><path class="cls-1" d="M30.35,41.66A2.34,2.34,0,0,1,33.67,45a2.34,2.34,0,1,1-3.32-3.32Zm-9.13,0A2.34,2.34,0,0,1,24.54,45a2.34,2.34,0,1,1-3.32-3.32ZM13.74,41a2.34,2.34,0,1,1-2.34,2.34A2.25,2.25,0,0,1,13.74,41Zm16.61-7.61a2.34,2.34,0,0,1,3.32,3.32,2.34,2.34,0,0,1-3.32-3.32Zm-9.13,0a2.34,2.34,0,0,1,3.32,3.32,2.34,2.34,0,0,1-3.32-3.32Zm-9.13,0a2.34,2.34,0,0,1,3.32,3.32,2.34,2.34,0,0,1-3.32-3.32Zm4-5.54v-2h-4.6a4.61,4.61,0,0,0-4.6,4.6V47.27a4.61,4.61,0,0,0,4.6,4.6H34.25a4.61,4.61,0,0,0,4.6-4.6V30.43a4.61,4.61,0,0,0-4.6-4.6h-4.6v2c0,.35-.16.51-.51.51h-.86c-.35,0-.51-.16-.51-.51v-2H17.95v2c0,.35-.16.51-.51.51h-.86C16.23,28.36,16.08,28.2,16.08,27.85ZM17.95,24h9.83V20.71c0-.35.16-.51.51-.51h.86c.35,0,.51.16.51.51V24h4.6a6.34,6.34,0,0,1,4.56,1.87,6.24,6.24,0,0,1,1.91,4.6V47.27a6.22,6.22,0,0,1-1.91,4.56,6.34,6.34,0,0,1-4.56,1.87H11.47a6.21,6.21,0,0,1-4.56-1.87A6.22,6.22,0,0,1,5,47.27V30.43A6.46,6.46,0,0,1,11.47,24h4.6V20.71c0-.35.16-.51.51-.51h.86c.35,0,.51.16.51.51Z"/></clipPath><clipPath id="clip-path-2" transform="translate(0 -15.21)"><rect class="cls-2" x="1.1" width="46" height="58"/></clipPath></defs><title>Asset 43</title><g id="Layer_2" data-name="Layer 2"><g id="Layer_1-2" data-name="Layer 1"><g class="cls-3"><g class="cls-4"><rect class="cls-5" width="45.72" height="43.5"/></g></g></g></g></svg>