<svg xmlns="http://www.w3.org/2000/svg" xmlns:xlink="http://www.w3.org/1999/xlink" viewBox="0 0 39.95 34.63"><defs><style>.cls-1,.cls-2{fill:none;}.cls-1{clip-rule:evenodd;}.cls-3{clip-path:url(#clip-path);}.cls-4{clip-path:url(#clip-path-2);}.cls-5{fill:#666;}</style><clipPath id="clip-path" transform="translate(0 -20.17)"><path class="cls-1" d="M34.36,48.34c.38,0,.59-.17.59-.55v-.88c0-.38-.21-.55-.59-.55h-19c-.38,0-.59.17-.59.55v.88c0,.38.21.55.59.55ZM5.76,45.61A2.26,2.26,0,0,0,5,47.33a2.48,2.48,0,1,0,.76-1.72Zm28.6-7.14c.38,0,.59-.17.59-.55V37c0-.38-.21-.55-.59-.55h-19c-.38,0-.59.17-.59.55v.88c0,.38.21.55.59.55ZM5.76,35.74A2.29,2.29,0,0,0,5,37.5a2.48,2.48,0,1,0,.76-1.76Zm28.6-7.14c.38,0,.59-.17.59-.55v-.88c0-.38-.21-.55-.59-.55h-19c-.38,0-.59.17-.59.55v.88c0,.38.21.55.59.55ZM5.76,25.87A2.29,2.29,0,0,0,5,27.63a2.48,2.48,0,1,0,.76-1.76Z"/></clipPath><clipPath id="clip-path-2" transform="translate(0 -20.17)"><rect class="cls-2" x="0.8" width="46" height="58"/></clipPath></defs><title>Asset 40</title><g id="Layer_2" data-name="Layer 2"><g id="Layer_1-2" data-name="Layer 1"><g class="cls-3"><g class="cls-4"><rect class="cls-5" width="39.95" height="34.63"/></g></g></g></g></svg>