<svg xmlns="http://www.w3.org/2000/svg" xmlns:xlink="http://www.w3.org/1999/xlink" viewBox="0 0 44.67 44.67"><defs><style>.cls-1,.cls-2{fill:none;}.cls-1{clip-rule:evenodd;}.cls-3{clip-path:url(#clip-path);}.cls-4{clip-path:url(#clip-path-2);}.cls-5{fill:#666;}</style><clipPath id="clip-path" transform="translate(0 -14.9)"><path class="cls-1" d="M22.32,32.26a4.68,4.68,0,0,0-3.47,1.44,5,5,0,0,0,3.47,8.5,4.89,4.89,0,0,0,3.55-1.48,5,5,0,0,0,0-7A4.86,4.86,0,0,0,22.32,32.26Zm0-1.87a6.79,6.79,0,0,1,6.86,6.82,6.86,6.86,0,0,1-6.86,6.86,6.43,6.43,0,0,1-4.8-2,6.45,6.45,0,0,1-2-4.84,6.86,6.86,0,0,1,6.83-6.82ZM25.71,26a1.64,1.64,0,0,1-1.21-1.29l-.58-2.85a14.26,14.26,0,0,0-3.16,0l-.62,2.85A1.54,1.54,0,0,1,19,26a15.13,15.13,0,0,0-2.18.9,1.67,1.67,0,0,1-1.76,0l-2.46-1.6a15,15,0,0,0-2.22,2.22l1.56,2.46A1.52,1.52,0,0,1,12,31.67a15.12,15.12,0,0,0-.9,2.18A1.54,1.54,0,0,1,9.8,35L7,35.65a14.26,14.26,0,0,0,0,3.16l2.85.58c1.29.31,1.4,1.79,2.18,3.39a1.53,1.53,0,0,1-.08,1.75L10.34,47a15,15,0,0,0,2.22,2.22L15,47.62a1.67,1.67,0,0,1,1.76,0,15.13,15.13,0,0,0,2.18.9,1.54,1.54,0,0,1,1.17,1.29l.62,2.85a14.26,14.26,0,0,0,3.16,0l.58-2.85c.31-1.29,1.79-1.4,3.39-2.18a1.67,1.67,0,0,1,1.76,0l2.46,1.6A15,15,0,0,0,34.33,47l-1.6-2.46a1.67,1.67,0,0,1,0-1.75,11.79,11.79,0,0,0,.9-2.18,1.64,1.64,0,0,1,1.29-1.21l2.85-.58a14.26,14.26,0,0,0,0-3.16L34.87,35a1.54,1.54,0,0,1-1.29-1.17,15.12,15.12,0,0,0-.9-2.18,1.67,1.67,0,0,1,0-1.75l1.6-2.46a15,15,0,0,0-2.22-2.22l-2.46,1.6a1.67,1.67,0,0,1-1.76,0A19.9,19.9,0,0,0,25.71,26Zm0-4.64.58,2.89a14.87,14.87,0,0,1,2.42,1l2.46-1.6a1.64,1.64,0,0,1,2,.12,17.05,17.05,0,0,1,2.65,2.65,1.54,1.54,0,0,1,.08,2l-1.6,2.5a14.45,14.45,0,0,1,1,2.38l2.89.62a1.58,1.58,0,0,1,1.33,1.52,14.72,14.72,0,0,1,0,3.71,1.66,1.66,0,0,1-1.33,1.52l-2.89.62a17.43,17.43,0,0,1-1,2.38l1.6,2.5a1.54,1.54,0,0,1-.08,2,17.05,17.05,0,0,1-2.65,2.65,1.59,1.59,0,0,1-2,.08l-2.46-1.6a12.52,12.52,0,0,1-2.42,1l-.58,2.89a1.66,1.66,0,0,1-1.52,1.33,14.72,14.72,0,0,1-3.71,0A1.58,1.58,0,0,1,19,53.12l-.62-2.89a14.45,14.45,0,0,1-2.38-1l-2.5,1.6a1.54,1.54,0,0,1-2-.08,17.06,17.06,0,0,1-2.65-2.65,1.59,1.59,0,0,1-.12-2l1.6-2.5a13.36,13.36,0,0,1-1-2.38L6.44,40.6a1.75,1.75,0,0,1-1.33-1.52,14.72,14.72,0,0,1,0-3.71,1.52,1.52,0,0,1,1.33-1.52l2.89-.62a11,11,0,0,1,1-2.38l-1.6-2.5a1.59,1.59,0,0,1,.12-2,17.06,17.06,0,0,1,2.65-2.65,1.59,1.59,0,0,1,2-.12L16,25.2a11,11,0,0,1,2.38-1L19,21.34A1.52,1.52,0,0,1,20.48,20a14.72,14.72,0,0,1,3.71,0A1.75,1.75,0,0,1,25.71,21.34Z"/></clipPath><clipPath id="clip-path-2" transform="translate(0 -14.9)"><rect class="cls-2" x="0.87" width="46" height="58"/></clipPath></defs><title>Asset 47</title><g id="Layer_2" data-name="Layer 2"><g id="Layer_1-2" data-name="Layer 1"><g class="cls-3"><g class="cls-4"><rect class="cls-5" width="44.67" height="44.67"/></g></g></g></g></svg>