<svg xmlns="http://www.w3.org/2000/svg" xmlns:xlink="http://www.w3.org/1999/xlink" viewBox="0 0 41.36 41.4"><defs><style>.cls-1,.cls-2{fill:none;}.cls-1{clip-rule:evenodd;}.cls-3{clip-path:url(#clip-path);}.cls-4{clip-path:url(#clip-path-2);}.cls-5{fill:#666;}</style><clipPath id="clip-path" transform="translate(0 -17.61)"><path class="cls-1" d="M29.26,29.51a2.26,2.26,0,1,0,0,3.2A2.24,2.24,0,0,0,29.26,29.51Zm2.34,1.6a3.94,3.94,0,1,1-3.94-3.94A3.95,3.95,0,0,1,31.6,31.11Zm-10,19.69L34.48,37.9l0-13.42H21.11L8.2,37.39a4.35,4.35,0,0,0-1.33,3.24A4.44,4.44,0,0,0,8.2,43.9l6.9,6.9A4.64,4.64,0,0,0,21.57,50.81ZM35.85,39.19,22.9,52.13A6.21,6.21,0,0,1,18.34,54a6.21,6.21,0,0,1-4.56-1.87l-6.9-6.9A6.36,6.36,0,0,1,5,40.63a6.18,6.18,0,0,1,1.87-4.52L19.82,23.16A1.51,1.51,0,0,1,21,22.65l13.61,0a1.71,1.71,0,0,1,1.72,1.72V37.94A1.84,1.84,0,0,1,35.85,39.19Z"/></clipPath><clipPath id="clip-path-2" transform="translate(0 -17.61)"><rect class="cls-2" x="1.1" width="46" height="58"/></clipPath></defs><title>Asset 48</title><g id="Layer_2" data-name="Layer 2"><g id="Layer_1-2" data-name="Layer 1"><g class="cls-3"><g class="cls-4"><rect class="cls-5" width="41.36" height="41.4"/></g></g></g></g></svg>