<svg xmlns="http://www.w3.org/2000/svg" xmlns:xlink="http://www.w3.org/1999/xlink" viewBox="0 0 45.26 44.75"><defs><style>.cls-1,.cls-2{fill:none;}.cls-1{clip-rule:evenodd;}.cls-3{clip-path:url(#clip-path);}.cls-4{clip-path:url(#clip-path-2);}.cls-5{fill:#666;}</style><clipPath id="clip-path" transform="translate(0 -14.86)"><path class="cls-1" d="M20.37,42.32a3.24,3.24,0,0,0,4.56,4.6,3.3,3.3,0,0,0,0-4.6A3.25,3.25,0,0,0,20.37,42.32ZM7.81,35.46a3.23,3.23,0,0,0,0,4.6,3.25,3.25,0,1,0,0-4.6Zm25-8.66a3.25,3.25,0,1,0,4.64,4.56,3.25,3.25,0,0,0,0-4.56A3.34,3.34,0,0,0,32.85,26.8Zm1.36-2.73V20.36c0-.35.19-.51.55-.51h.82c.35,0,.51.16.51.51v3.71a5.12,5.12,0,0,1,0,10.06v20c0,.35-.16.51-.51.51h-.82c-.35,0-.55-.16-.55-.51v-20a5.12,5.12,0,0,1,0-10.06ZM21.69,39.59V20.36c0-.35.16-.51.51-.51h.86c.35,0,.51.16.51.51V39.59a5.12,5.12,0,0,1,0,10.06V54.1c0,.35-.16.51-.51.51H22.2c-.35,0-.51-.16-.51-.51V49.65a5.12,5.12,0,0,1,0-10.06ZM9.17,32.73V20.36c0-.35.16-.51.51-.51h.82c.35,0,.51.16.51.51V32.73a5.12,5.12,0,0,1,0,10.06V54.1c0,.35-.16.51-.51.51H9.68c-.35,0-.51-.16-.51-.51V42.79a5.12,5.12,0,0,1,0-10.06Z"/></clipPath><clipPath id="clip-path-2" transform="translate(0 -14.86)"><rect class="cls-2" x="1.1" width="46" height="58"/></clipPath></defs><title>Asset 41</title><g id="Layer_2" data-name="Layer 2"><g id="Layer_1-2" data-name="Layer 1"><g class="cls-3"><g class="cls-4"><rect class="cls-5" width="45.26" height="44.75"/></g></g></g></g></svg>