<svg xmlns="http://www.w3.org/2000/svg" xmlns:xlink="http://www.w3.org/1999/xlink" viewBox="0 0 43.94 47.87"><defs><style>.cls-1,.cls-2{fill:none;}.cls-1{clip-rule:evenodd;}.cls-3{clip-path:url(#clip-path);}.cls-4{clip-path:url(#clip-path-2);}.cls-5{fill:#666;}</style><clipPath id="clip-path" transform="translate(0 -13.59)"><path class="cls-1" d="M22.88,35.11l5,4a.42.42,0,0,1,.08.7l-.51.66a.48.48,0,0,1-.74.08l-5-4A1.61,1.61,0,0,1,21,35.18V24.69c0-.35.16-.51.51-.51h.82c.35,0,.51.16.51.51ZM19.6,50.47l-2.89-3.78a.48.48,0,0,1,.12-.74l.66-.51a.44.44,0,0,1,.7.12l4.21,5.5A1.2,1.2,0,0,1,22,52.81l-5.69,3.55a.45.45,0,0,1-.7-.16l-.43-.7c-.19-.31-.16-.55.16-.7l4-2.5a16.39,16.39,0,0,1-8.19-3.71,17,17,0,0,1-3.63-22,16.38,16.38,0,0,1,10.57-7.53,16.4,16.4,0,0,1,12.79,2.07,16.89,16.89,0,0,1,6.94,20.28c-1.44,4-3.59,6.28-7.18,8.62a.44.44,0,0,1-.7-.12l-.47-.74a.48.48,0,0,1,.16-.7,14.54,14.54,0,0,0,6.47-7.72,15.13,15.13,0,0,0-6.2-18.06,14.55,14.55,0,0,0-11.43-1.83A15.05,15.05,0,0,0,7.08,38,15.06,15.06,0,0,0,19.6,50.47Z"/></clipPath><clipPath id="clip-path-2" transform="translate(0 -13.59)"><rect class="cls-2" x="0.06" width="47" height="58"/></clipPath></defs><title>Asset 45</title><g id="Layer_2" data-name="Layer 2"><g id="Layer_1-2" data-name="Layer 1"><g class="cls-3"><g class="cls-4"><rect class="cls-5" width="43.94" height="47.87"/></g></g></g></g></svg>