<svg xmlns="http://www.w3.org/2000/svg" xmlns:xlink="http://www.w3.org/1999/xlink" viewBox="0 0 47.44 46.67"><defs><style>.cls-1,.cls-2{fill:none;}.cls-1{clip-rule:evenodd;}.cls-3{clip-path:url(#clip-path);}.cls-4{clip-path:url(#clip-path-2);}.cls-5{fill:#666;}</style><clipPath id="clip-path" transform="translate(0 -14.3)"><path class="cls-1" d="M23.29,28.71h.86c.35,0,.51.16.51.51v9.91a1.73,1.73,0,0,1-1.72,1.72H17.6c-.35,0-.51-.16-.51-.51v-.86c0-.35.16-.51.51-.51h5.19V29.22C22.78,28.86,22.94,28.71,23.29,28.71ZM13.54,49.93a13.87,13.87,0,0,0,10.18,4.21A14.38,14.38,0,0,0,38.15,39.71a13.89,13.89,0,0,0-4.21-10.22,14,14,0,0,0-10.22-4.21,13.87,13.87,0,0,0-10.18,4.21A13.78,13.78,0,0,0,9.29,39.71,13.9,13.9,0,0,0,13.54,49.93ZM12.21,28.16A15.72,15.72,0,0,1,23.72,23.4,16.25,16.25,0,0,1,40,39.71a15.7,15.7,0,0,1-4.13,10.84L39.36,54a.48.48,0,0,1,0,.74l-.59.58q-.41.41-.7,0l-3.51-3.47A16,16,0,0,1,23.72,56a16,16,0,0,1-10.84-4.1L9.37,55.35q-.29.41-.7,0l-.58-.58a.48.48,0,0,1,0-.74l3.47-3.47A15.7,15.7,0,0,1,7.42,39.71,15.76,15.76,0,0,1,12.21,28.16Zm17.51-6.67a7.43,7.43,0,0,1,11.15,9.75c-.2.27-.43.27-.7.08l-.66-.51a.42.42,0,0,1-.08-.7c4.1-5.26-3.24-12.17-8.46-7.25a.42.42,0,0,1-.7,0l-.58-.58C29.45,22,29.45,21.77,29.72,21.49ZM8,30.11a.42.42,0,0,1-.08.7l-.66.51c-.27.19-.51.19-.7-.08a7.2,7.2,0,0,1,1-10,7.23,7.23,0,0,1,10.14.23c.27.27.27.51,0,.74l-.58.58a.42.42,0,0,1-.7,0C11.24,17.94,3.91,24.85,8,30.11Z"/></clipPath><clipPath id="clip-path-2" transform="translate(0 -14.3)"><rect class="cls-2" x="0.9" width="50" height="58"/></clipPath></defs><title>Asset 44</title><g id="Layer_2" data-name="Layer 2"><g id="Layer_1-2" data-name="Layer 1"><g class="cls-3"><g class="cls-4"><rect class="cls-5" width="47.44" height="46.67"/></g></g></g></g></svg>