<svg xmlns="http://www.w3.org/2000/svg" xmlns:xlink="http://www.w3.org/1999/xlink" viewBox="0 0 41.24 44.48"><defs><style>.cls-1,.cls-2{fill:none;}.cls-1{clip-rule:evenodd;}.cls-3{clip-path:url(#clip-path);}.cls-4{clip-path:url(#clip-path-2);}.cls-5{fill:#666;}</style><clipPath id="clip-path" transform="translate(0 -15.09)"><path class="cls-1" d="M25.4,36.39l-4.6-4.6a.48.48,0,0,1,0-.74l.58-.58c.27-.27.51-.27.74,0L28,36.39a1.29,1.29,0,0,1,0,1.83l-5.89,5.93a.48.48,0,0,1-.74,0l-.58-.59a.48.48,0,0,1,0-.74l4.6-4.6H5.51c-.35,0-.51-.16-.51-.51V36.9c0-.35.16-.51.51-.51ZM13.81,26.68A6.39,6.39,0,0,1,15.76,22a6.27,6.27,0,0,1,4.64-1.91h9.24a6.53,6.53,0,0,1,6.59,6.59V48a6.53,6.53,0,0,1-6.59,6.59H20.4a6.27,6.27,0,0,1-4.64-1.91A6.39,6.39,0,0,1,13.81,48V43.26c0-.35.16-.51.51-.51h.82c.35,0,.51.16.51.51V48a4.6,4.6,0,0,0,1.4,3.35,4.72,4.72,0,0,0,3.35,1.37h9.24A4.66,4.66,0,0,0,34.37,48V26.68A4.66,4.66,0,0,0,29.65,22H20.4a4.72,4.72,0,0,0-3.35,1.36,4.6,4.6,0,0,0-1.4,3.35v4.68c0,.35-.16.51-.51.51h-.82c-.35,0-.51-.16-.51-.51Z"/></clipPath><clipPath id="clip-path-2" transform="translate(0 -15.09)"><rect class="cls-2" x="1.1" width="46" height="58"/></clipPath></defs><title>Asset 56</title><g id="Layer_2" data-name="Layer 2"><g id="Layer_1-2" data-name="Layer 1"><g class="cls-3"><g class="cls-4"><rect class="cls-5" width="41.24" height="44.48"/></g></g></g></g></svg>