<svg xmlns="http://www.w3.org/2000/svg" xmlns:xlink="http://www.w3.org/1999/xlink" viewBox="0 0 44.59 44.59"><defs><style>.cls-1,.cls-2{fill:none;}.cls-1{clip-rule:evenodd;}.cls-3{clip-path:url(#clip-path);}.cls-4{clip-path:url(#clip-path-2);}.cls-5{fill:#666;}</style><clipPath id="clip-path" transform="translate(0 -14.97)"><path class="cls-1" d="M30.9,30.7l.62.59c.27.19.31.43,0,.7L20.8,43.88a.77.77,0,0,1-1.13,0l-6.12-6.24a.44.44,0,0,1,0-.7l.58-.58c.27-.27.51-.27.74,0l5.34,5.42,10-11.08A.46.46,0,0,1,30.9,30.7Zm2.3,17.47a14.93,14.93,0,0,0,4.52-10.92A14.93,14.93,0,0,0,33.2,26.33a14.89,14.89,0,0,0-10.92-4.48,14.93,14.93,0,0,0-10.92,4.52A14.84,14.84,0,0,0,6.83,37.25a14.93,14.93,0,0,0,4.52,10.92,14.93,14.93,0,0,0,10.92,4.52A14.93,14.93,0,0,0,33.2,48.17Zm-19.58,4.1A16.94,16.94,0,0,1,7.3,45.95,17.16,17.16,0,0,1,5,37.25,16.64,16.64,0,0,1,10.07,25a16.6,16.6,0,0,1,12.21-5,17.29,17.29,0,0,1,15,8.58,17.37,17.37,0,0,1,2.3,8.7,17.12,17.12,0,0,1-2.3,8.66,17.15,17.15,0,0,1-15,8.66A17.12,17.12,0,0,1,13.62,52.27Z"/></clipPath><clipPath id="clip-path-2" transform="translate(0 -14.97)"><rect class="cls-2" x="1.1" width="46" height="58"/></clipPath></defs><title>Asset 57</title><g id="Layer_2" data-name="Layer 2"><g id="Layer_1-2" data-name="Layer 1"><g class="cls-3"><g class="cls-4"><rect class="cls-5" width="44.59" height="44.59"/></g></g></g></g></svg>