<svg xmlns="http://www.w3.org/2000/svg" xmlns:xlink="http://www.w3.org/1999/xlink" viewBox="0 0 35.8 35.77"><defs><style>.cls-1,.cls-2{fill:none;}.cls-1{clip-rule:evenodd;}.cls-3{clip-path:url(#clip-path);}.cls-4{clip-path:url(#clip-path-2);}.cls-5{fill:#666;}</style><clipPath id="clip-path" transform="translate(0 -19.41)"><path class="cls-1" d="M19.21,37.29,30.59,25.9q.41-.29,0-.7L30,24.61c-.23-.27-.47-.27-.74,0L17.88,36,6.53,24.61c-.23-.27-.47-.27-.74,0l-.59.58q-.41.41,0,.7L16.59,37.29,5.2,48.68q-.41.41,0,.7l.59.62a.48.48,0,0,0,.74,0L17.88,38.61,29.27,50A.48.48,0,0,0,30,50l.59-.62q.41-.29,0-.7Z"/></clipPath><clipPath id="clip-path-2" transform="translate(0 -19.41)"><rect class="cls-2" x="0.72" width="46" height="58"/></clipPath></defs><title>Asset 52</title><g id="Layer_2" data-name="Layer 2"><g id="Layer_1-2" data-name="Layer 1"><g class="cls-3"><g class="cls-4"><rect class="cls-5" width="35.8" height="35.77"/></g></g></g></g></svg>