<svg xmlns="http://www.w3.org/2000/svg" xmlns:xlink="http://www.w3.org/1999/xlink" viewBox="0 0 46.35 46.31"><defs><style>.cls-1,.cls-2{fill:none;}.cls-1{clip-rule:evenodd;}.cls-3{clip-path:url(#clip-path);}.cls-4{clip-path:url(#clip-path-2);}.cls-5{fill:#666;}</style><clipPath id="clip-path" transform="translate(0 -14.07)"><path class="cls-1" d="M10.23,39.9a14.23,14.23,0,0,0,4.68,9.71,14.13,14.13,0,0,0,9.95,3.94A14.65,14.65,0,0,0,39.52,38.89a14.19,14.19,0,0,0-4-10,14.46,14.46,0,0,0-9.83-4.64c-.35,0-.51-.16-.47-.51l0-.86c0-.35.19-.51.55-.47a16,16,0,0,1,11,5.19,16,16,0,0,1,4.49,11.31,15.93,15.93,0,0,1-4.84,11.7,16,16,0,0,1-11.66,4.8,15.86,15.86,0,0,1-11.23-4.45A16.27,16.27,0,0,1,8.36,40.06c0-.35.12-.55.47-.55l.86-.08A.47.47,0,0,1,10.23,39.9ZM6.87,34.64H20.56V20.95a14.14,14.14,0,0,0-9.44,4.25A14.14,14.14,0,0,0,6.87,34.64ZM5,34.68a15.81,15.81,0,0,1,4.8-10.8,16.16,16.16,0,0,1,10.8-4.8,1.72,1.72,0,0,1,1.79,1.72v14a1.71,1.71,0,0,1-1.72,1.72h-14A1.76,1.76,0,0,1,5,34.68Z"/></clipPath><clipPath id="clip-path-2" transform="translate(0 -14.07)"><rect class="cls-2" x="1.06" width="46" height="58"/></clipPath></defs><title>Asset 53</title><g id="Layer_2" data-name="Layer 2"><g id="Layer_1-2" data-name="Layer 1"><g class="cls-3"><g class="cls-4"><rect class="cls-5" width="46.35" height="46.31"/></g></g></g></g></svg>