<svg xmlns="http://www.w3.org/2000/svg" xmlns:xlink="http://www.w3.org/1999/xlink" viewBox="0 0 44.6 44.6"><defs><style>.cls-1,.cls-2{fill:none;}.cls-1{clip-rule:evenodd;}.cls-3{clip-path:url(#clip-path);}.cls-4{clip-path:url(#clip-path-2);}.cls-5{fill:#666;}</style><clipPath id="clip-path" transform="translate(0 -14.97)"><path class="cls-1" d="M23.61,37.25l5.27,5.27c.27.23.27.47,0,.74l-.58.59q-.41.41-.7,0l-5.26-5.26-5.27,5.26a.48.48,0,0,1-.74,0l-.58-.59a.48.48,0,0,1,0-.74L21,37.25,15.73,32a.44.44,0,0,1,0-.7l.58-.59c.27-.27.51-.27.74,0L22.32,36l5.26-5.26q.29-.41.7,0l.58.59a.44.44,0,0,1,0,.7Zm9.63,10.92a14.89,14.89,0,0,0,4.49-10.92,14.89,14.89,0,0,0-4.49-10.92,14.89,14.89,0,0,0-10.92-4.48A14.89,14.89,0,0,0,11.4,26.33,14.93,14.93,0,0,0,6.88,37.25,14.93,14.93,0,0,0,11.4,48.17a14.93,14.93,0,0,0,10.92,4.52A14.93,14.93,0,0,0,33.24,48.17Zm-10.92,6.4a17.3,17.3,0,1,1,0-34.59,16.73,16.73,0,0,1,12.21,5A16.64,16.64,0,0,1,39.6,37.25,16.64,16.64,0,0,1,34.53,49.5,16.61,16.61,0,0,1,22.32,54.57Z"/></clipPath><clipPath id="clip-path-2" transform="translate(0 -14.97)"><rect class="cls-2" x="1.1" width="46" height="58"/></clipPath></defs><title>Asset 58</title><g id="Layer_2" data-name="Layer 2"><g id="Layer_1-2" data-name="Layer 1"><g class="cls-3"><g class="cls-4"><rect class="cls-5" width="44.6" height="44.6"/></g></g></g></g></svg>