<svg xmlns="http://www.w3.org/2000/svg" xmlns:xlink="http://www.w3.org/1999/xlink" viewBox="0 0 44.68 44.48"><defs><style>.cls-1,.cls-2{fill:none;}.cls-1{clip-rule:evenodd;}.cls-3{clip-path:url(#clip-path);}.cls-4{clip-path:url(#clip-path-2);}.cls-5{fill:#666;}</style><clipPath id="clip-path" transform="translate(0 -15.01)"><path class="cls-1" d="M8.05,36.31H27.94c.35,0,.51.16.51.51v.82c0,.35-.16.51-.51.51H8.05l4.6,4.6c.27.23.27.47,0,.74l-.59.59q-.41.41-.7,0L5.44,38.15a1.18,1.18,0,0,1,0-1.83l5.93-5.93q.29-.41.7,0l.59.59c.27.23.27.47,0,.74Zm9.2-9.71a6.39,6.39,0,0,1,1.95-4.68A6.27,6.27,0,0,1,23.85,20h9.24a6.53,6.53,0,0,1,6.59,6.59V47.9a6.53,6.53,0,0,1-6.59,6.59H23.85a6.27,6.27,0,0,1-4.64-1.91,6.39,6.39,0,0,1-1.95-4.68V43.18c0-.35.16-.51.51-.51h.82c.35,0,.51.16.51.51V47.9a4.6,4.6,0,0,0,1.4,3.35,4.72,4.72,0,0,0,3.35,1.37h9.24a4.66,4.66,0,0,0,4.72-4.72V26.6a4.66,4.66,0,0,0-4.72-4.72H23.85a4.72,4.72,0,0,0-3.35,1.37,4.6,4.6,0,0,0-1.4,3.35v4.68c0,.35-.16.51-.51.51h-.82c-.35,0-.51-.16-.51-.51Z"/></clipPath><clipPath id="clip-path-2" transform="translate(0 -15.01)"><rect class="cls-2" x="1.11" width="46" height="58"/></clipPath></defs><title>Asset 55</title><g id="Layer_2" data-name="Layer 2"><g id="Layer_1-2" data-name="Layer 1"><g class="cls-3"><g class="cls-4"><rect class="cls-5" width="44.68" height="44.48"/></g></g></g></g></svg>