<svg xmlns="http://www.w3.org/2000/svg" xmlns:xlink="http://www.w3.org/1999/xlink" viewBox="0 0 44.59 44.59"><defs><style>.cls-1,.cls-2{fill:none;}.cls-1{clip-rule:evenodd;}.cls-3{clip-path:url(#clip-path);}.cls-4{clip-path:url(#clip-path-2);}.cls-5{fill:#666;}</style><clipPath id="clip-path" transform="translate(0 -14.97)"><path class="cls-1" d="M17.32,36.35H30.19c.35,0,.51.16.51.51v.82c0,.35-.16.51-.51.51H17.32l4.29,4.29c.27.27.27.51,0,.74L21,43.8a.44.44,0,0,1-.7,0l-5.73-5.73a1.2,1.2,0,0,1,0-1.64l5.73-5.69a.44.44,0,0,1,.7,0l.59.59a.44.44,0,0,1,0,.7Zm-5.93-10A14.93,14.93,0,0,0,6.87,37.25,14.93,14.93,0,0,0,11.4,48.17a14.93,14.93,0,0,0,10.92,4.52,14.93,14.93,0,0,0,10.92-4.52,14.89,14.89,0,0,0,4.48-10.92,14.89,14.89,0,0,0-4.48-10.92,14.89,14.89,0,0,0-10.92-4.48A14.89,14.89,0,0,0,11.4,26.33ZM7.34,45.91A16.77,16.77,0,0,1,5,37.25a17,17,0,0,1,2.34-8.7,16.73,16.73,0,0,1,6.28-6.28,17.16,17.16,0,0,1,8.7-2.3,16.73,16.73,0,0,1,12.21,5,16.64,16.64,0,0,1,5.07,12.25A16.64,16.64,0,0,1,34.52,49.5a16.61,16.61,0,0,1-12.21,5.07,17.12,17.12,0,0,1-8.66-2.3A16.76,16.76,0,0,1,7.34,45.91Z"/></clipPath><clipPath id="clip-path-2" transform="translate(0 -14.97)"><rect class="cls-2" x="1.1" width="46" height="58"/></clipPath></defs><title>Asset 59</title><g id="Layer_2" data-name="Layer 2"><g id="Layer_1-2" data-name="Layer 1"><g class="cls-3"><g class="cls-4"><rect class="cls-5" width="44.59" height="44.59"/></g></g></g></g></svg>