<svg xmlns="http://www.w3.org/2000/svg" xmlns:xlink="http://www.w3.org/1999/xlink" viewBox="0 0 51.42 40.15"><defs><style>.cls-1,.cls-2{fill:none;}.cls-1{clip-rule:evenodd;}.cls-3{clip-path:url(#clip-path);}.cls-4{clip-path:url(#clip-path-2);}.cls-5{fill:#666;}</style><clipPath id="clip-path" transform="translate(0 -16.61)"><path class="cls-1" d="M8.32,45.17a3.29,3.29,0,1,0,3.28,3.28,3.2,3.2,0,0,0-.7-2l6.4-9a3.79,3.79,0,0,0,1.05.19A3.18,3.18,0,0,0,21,36.27l8.85,3.55v.31a3.28,3.28,0,1,0,6.55,0A3.12,3.12,0,0,0,35.58,38l6.59-10a3.75,3.75,0,0,0,1,.16,3.3,3.3,0,1,0-3.32-3.32A3.46,3.46,0,0,0,40.61,27L34.06,37a3.93,3.93,0,0,0-1-.12,3.07,3.07,0,0,0-2.57,1.25l-8.89-3.55s0-.16,0-.31a3.3,3.3,0,0,0-6.59,0,3.48,3.48,0,0,0,.7,2.07l-6.4,9A3.34,3.34,0,0,0,8.32,45.17Z"/></clipPath><clipPath id="clip-path-2" transform="translate(0 -16.61)"><rect class="cls-2" x="1.11" width="46" height="58"/></clipPath></defs><title>Asset 54</title><g id="Layer_2" data-name="Layer 2"><g id="Layer_1-2" data-name="Layer 1"><g class="cls-3"><g class="cls-4"><rect class="cls-5" width="51.42" height="40.15"/></g></g></g></g></svg>