<svg xmlns="http://www.w3.org/2000/svg" xmlns:xlink="http://www.w3.org/1999/xlink" viewBox="0 0 49.2 44.28"><defs><style>.cls-1,.cls-2{fill:none;}.cls-1{clip-rule:evenodd;}.cls-3{clip-path:url(#clip-path);}.cls-4{clip-path:url(#clip-path-2);}.cls-5{fill:#666;}</style><clipPath id="clip-path" transform="translate(0 -15.05)"><path class="cls-1" d="M24.54,46.65h.12c1,0,1.25.31,1.25,1.25v.19c0,.94-.27,1.21-1.25,1.21h-.12c-1,0-1.25-.27-1.25-1.21V47.9C23.29,47,23.57,46.65,24.54,46.65ZM24.07,31.2h1.09q.64,0,.59.59l-.27,12.32q-.06.58-.59.59h-.59q-.53,0-.58-.59l-.23-12.32Q23.43,31.2,24.07,31.2ZM42.21,52.5,24.58,22.08,7,52.5Zm-37-.7,17.9-30.93a1.72,1.72,0,0,1,2.92,0L44,51.8a1.68,1.68,0,0,1-1.44,2.54H6.68A1.68,1.68,0,0,1,5.24,51.8Z"/></clipPath><clipPath id="clip-path-2" transform="translate(0 -15.05)"><rect class="cls-2" x="0.63" width="52" height="58"/></clipPath></defs><title>Asset 64</title><g id="Layer_2" data-name="Layer 2"><g id="Layer_1-2" data-name="Layer 1"><g class="cls-3"><g class="cls-4"><rect class="cls-5" width="49.2" height="44.28"/></g></g></g></g></svg>