<svg xmlns="http://www.w3.org/2000/svg" xmlns:xlink="http://www.w3.org/1999/xlink" viewBox="0 0 44.6 44.6"><defs><style>.cls-1,.cls-2{fill:none;}.cls-1{clip-rule:evenodd;}.cls-3{clip-path:url(#clip-path);}.cls-4{clip-path:url(#clip-path-2);}.cls-5{fill:#666;}</style><clipPath id="clip-path" transform="translate(0 -14.97)"><path class="cls-1" d="M21.38,42.24V29.37c0-.35.16-.51.51-.51h.82c.35,0,.51.16.51.51V42.24l4.29-4.33a.54.54,0,0,1,.74,0l.59.62a.44.44,0,0,1,0,.7L23.13,45a1.25,1.25,0,0,1-1.68,0l-5.69-5.73a.44.44,0,0,1,0-.7l.59-.62a.49.49,0,0,1,.7,0Zm-10,5.93a14.84,14.84,0,0,0,10.88,4.52A14.93,14.93,0,0,0,33.2,48.17a14.93,14.93,0,0,0,4.52-10.92A14.93,14.93,0,0,0,33.2,26.33a14.89,14.89,0,0,0-10.92-4.48A14.81,14.81,0,0,0,11.4,26.33,14.93,14.93,0,0,0,6.87,37.25,14.93,14.93,0,0,0,11.4,48.17Zm10.88,6.4A16.61,16.61,0,0,1,10.07,49.5,16.64,16.64,0,0,1,5,37.25,16.64,16.64,0,0,1,10.07,25a16.73,16.73,0,0,1,12.21-5,17.3,17.3,0,1,1,0,34.59Z"/></clipPath><clipPath id="clip-path-2" transform="translate(0 -14.97)"><rect class="cls-2" x="1.1" width="46" height="58"/></clipPath></defs><title>Asset 61</title><g id="Layer_2" data-name="Layer 2"><g id="Layer_1-2" data-name="Layer 1"><g class="cls-3"><g class="cls-4"><rect class="cls-5" width="44.6" height="44.6"/></g></g></g></g></svg>