<svg xmlns="http://www.w3.org/2000/svg" xmlns:xlink="http://www.w3.org/1999/xlink" viewBox="0 0 35.8 35.77"><defs><style>.cls-1,.cls-4{fill:none;}.cls-1{clip-rule:evenodd;}.cls-2{clip-path:url(#clip-path);}.cls-3{fill:#01bbc3;}.cls-4{stroke:#01bbc3;stroke-miterlimit:10;stroke-width:0.5px;}</style><clipPath id="clip-path"><path class="cls-1" d="M19.21,17.88,30.59,6.49q.41-.29,0-.7L30,5.2c-.23-.27-.47-.27-.74,0L17.88,16.59,6.53,5.2c-.23-.27-.47-.27-.74,0l-.58.58q-.41.41,0,.7L16.59,17.88,5.2,29.27q-.41.41,0,.7l.58.62a.48.48,0,0,0,.74,0L17.88,19.21,29.27,30.59a.48.48,0,0,0,.74,0l.58-.62q.41-.29,0-.7Z"/></clipPath></defs><title>Asset 7</title><g id="Layer_2" data-name="Layer 2"><g id="Layer_1-2" data-name="Layer 1"><g class="cls-2"><rect class="cls-3" width="35.8" height="35.77"/></g><path class="cls-4" d="M19.21,17.88,30.59,6.49q.41-.29,0-.7L30,5.2c-.23-.27-.47-.27-.74,0L17.88,16.59,6.53,5.2c-.23-.27-.47-.27-.74,0l-.58.59q-.41.41,0,.7L16.59,17.88,5.2,29.27q-.41.41,0,.7l.58.62a.48.48,0,0,0,.74,0L17.88,19.21,29.27,30.59a.48.48,0,0,0,.74,0l.58-.62q.41-.29,0-.7Z"/></g></g></svg>