<svg xmlns="http://www.w3.org/2000/svg" xmlns:xlink="http://www.w3.org/1999/xlink" viewBox="0 0 43.14 43.16"><defs><style>.cls-1,.cls-2{fill:none;}.cls-1{clip-rule:evenodd;}.cls-3{clip-path:url(#clip-path);}.cls-4{clip-path:url(#clip-path-2);}.cls-5{fill:#666;}</style><clipPath id="clip-path" transform="translate(0 -15.52)"><path class="cls-1" d="M14.4,50.43A11.66,11.66,0,0,1,6.8,53.67,1.67,1.67,0,0,1,5,51.84a12.37,12.37,0,0,1,3.35-7.68.44.44,0,0,1,.7,0l.62.59c.2.19.2.43,0,.7A10.17,10.17,0,0,0,6.83,51.8a9.85,9.85,0,0,0,6.28-2.69c.27-.27.51-.27.74,0l.55.59A.48.48,0,0,1,14.4,50.43ZM29.49,27.11a2,2,0,1,0,2,2A2,2,0,0,0,29.49,27.11Zm2.61,4.6a3.67,3.67,0,1,1-5.19-5.19,3.67,3.67,0,0,1,5.19,5.19Zm4-9.13a16.61,16.61,0,0,0-6.59.27A11,11,0,0,0,24,25.71c-2.18,2.18-3.74,5.58-4.72,10.14a1.71,1.71,0,0,1-1.79,1.33l-4.37-.23L9.41,40.56l5.65,2.07a1.7,1.7,0,0,1,1.05,1l2,5.66,3.67-3.63-.27-4.41a1.75,1.75,0,0,1,1.37-1.76c4.64-1,8-2.57,10.1-4.72a11.22,11.22,0,0,0,2.77-5.58A17.72,17.72,0,0,0,36.12,22.59Zm.43-1.79a1.65,1.65,0,0,1,1.36,1.4,19.21,19.21,0,0,1-.35,7.53,13.07,13.07,0,0,1-3.24,6.4c-2.38,2.38-6,4.1-10.92,5.19l.23,4.33A1.6,1.6,0,0,1,23.14,47l-3.82,3.82-.2.12a1.7,1.7,0,0,1-2.65-.74L14.4,44.35,8.59,42.24A1.68,1.68,0,0,1,8,39.43l3.82-3.86a1.65,1.65,0,0,1,1.33-.47l4.33.23c1.13-5,2.85-8.62,5.19-10.92A13,13,0,0,1,29,21.06,18.38,18.38,0,0,1,36.55,20.79Z"/></clipPath><clipPath id="clip-path-2" transform="translate(0 -15.52)"><rect class="cls-2" x="1.06" width="46" height="58"/></clipPath></defs><title>Asset 65</title><g id="Layer_2" data-name="Layer 2"><g id="Layer_1-2" data-name="Layer 1"><g class="cls-3"><g class="cls-4"><rect class="cls-5" width="43.14" height="43.16"/></g></g></g></g></svg>