<svg xmlns="http://www.w3.org/2000/svg" xmlns:xlink="http://www.w3.org/1999/xlink" viewBox="0 0 44.6 44.6"><defs><style>.cls-1,.cls-2{fill:none;}.cls-1{clip-rule:evenodd;}.cls-3{clip-path:url(#clip-path);}.cls-4{clip-path:url(#clip-path-2);}.cls-5{fill:#666;}</style><clipPath id="clip-path" transform="translate(0 -14.93)"><path class="cls-1" d="M21.81,45.64H22c.82,0,1.05.27,1.05,1.09v.16C23,47.7,22.79,48,22,48h-.16c-.9,0-1.13-.27-1.13-1.09v-.16C20.68,45.91,20.92,45.64,21.81,45.64ZM15.77,32c1.17-3,3.51-4.52,7-4.52,4,0,6.51,2.42,6.51,5.66a5.77,5.77,0,0,1-1.25,4,12,12,0,0,1-2.53,2.07l-.31.19c-1.4,1-2.3,1.68-2.46,3.63,0,.35-.2.51-.55.51h-.62c-.35,0-.51-.16-.51-.51,0-2.5,1-3.67,3-4.91.59-.43,1-.7,1.25-.9s.51-.47.94-.9a4,4,0,0,0,1.09-3.12c0-2.3-1.72-3.94-4.64-3.94a5.06,5.06,0,0,0-5.11,3.35.47.47,0,0,1-.66.35l-.82-.23C15.73,32.65,15.65,32.38,15.77,32ZM11.4,26.33A14.93,14.93,0,0,0,6.88,37.25a15.38,15.38,0,0,0,15.44,15.4,15.31,15.31,0,0,0,15.4-15.4,14.89,14.89,0,0,0-4.48-10.92,14.93,14.93,0,0,0-10.92-4.52A14.93,14.93,0,0,0,11.4,26.33Zm10.92-6.4A16.61,16.61,0,0,1,34.53,25,16.64,16.64,0,0,1,39.6,37.25,16.64,16.64,0,0,1,34.53,49.5a16.73,16.73,0,0,1-12.21,5,17.3,17.3,0,1,1,0-34.59Z"/></clipPath><clipPath id="clip-path-2" transform="translate(0 -14.93)"><rect class="cls-2" x="1.1" width="46" height="58"/></clipPath></defs><title>Asset 63</title><g id="Layer_2" data-name="Layer 2"><g id="Layer_1-2" data-name="Layer 1"><g class="cls-3"><g class="cls-4"><rect class="cls-5" width="44.6" height="44.6"/></g></g></g></g></svg>