<svg xmlns="http://www.w3.org/2000/svg" xmlns:xlink="http://www.w3.org/1999/xlink" viewBox="0 0 32 32"><defs><style>.cls-1{fill:none;clip-rule:evenodd;}.cls-2{clip-path:url(#clip-path);}.cls-3{fill:#fff;}.cls-4{clip-path:url(#clip-path-2);}</style><clipPath id="clip-path"><path class="cls-1" d="M16.07,19.44A3.44,3.44,0,1,1,19.51,16,3.44,3.44,0,0,1,16.07,19.44Zm0-8.25A4.81,4.81,0,1,0,20.88,16,4.81,4.81,0,0,0,16.07,11.19Z"/></clipPath><clipPath id="clip-path-2"><path class="cls-1" d="M25.63,17l-2.48.76-.07.34a13,13,0,0,1-.62,1.44l-.21.34,1.24,2.27-1.37,1.38-2.27-1.24-.34.21a6.52,6.52,0,0,1-1.44.62l-.34.07L17,25.63H15l-.76-2.47-.34-.07a13,13,0,0,1-1.44-.62l-.34-.21L9.88,23.49,8.51,22.12l1.24-2.27-.21-.34a5.39,5.39,0,0,1-.62-1.44l-.07-.34L6.38,17V15l2.34-.69L8.85,14a5.84,5.84,0,0,1,.62-1.51l.21-.34L8.51,9.88,9.88,8.51l2.2,1.24.34-.21a5.84,5.84,0,0,1,1.51-.62l.34-.14L15,6.38H17l.76,2.41.34.14a6.52,6.52,0,0,1,1.44.62l.34.21,2.27-1.24,1.38,1.38-1.24,2.27.21.34a5.39,5.39,0,0,1,.62,1.44l.07.34,2.48.76Zm.55-3.23-1.92-.62-.41-1,1-1.79A1.15,1.15,0,0,0,24.59,9L22.94,7.34a1.15,1.15,0,0,0-1.31-.21l-1.79,1-1-.41L18.2,5.76a1.12,1.12,0,0,0-1-.76H14.83a1,1,0,0,0-1,.83l-.62,1.92a5.21,5.21,0,0,0-1.1.41l-1.79-1a1.15,1.15,0,0,0-1.31.21L7.41,9.06a1.16,1.16,0,0,0-.21,1.31l.89,1.72c-.14.34-.28.76-.41,1.1l-1.93.62a1.12,1.12,0,0,0-.76,1v2.34a1.09,1.09,0,0,0,.82,1l1.93.62.41,1-1,1.79a1.16,1.16,0,0,0,.21,1.31l1.65,1.65a1.16,1.16,0,0,0,1.31.21l1.79-1,1,.41.62,2a1.12,1.12,0,0,0,1,.76h2.34a1.12,1.12,0,0,0,1-.76l.62-2,1-.41,1.79,1a1.16,1.16,0,0,0,1.31-.21l1.65-1.65a1.15,1.15,0,0,0,.21-1.31l-1-1.79.41-1,2-.62a1.12,1.12,0,0,0,.76-1V14.83A1.11,1.11,0,0,0,26.17,13.73Z"/></clipPath></defs><title>Asset 1</title><g id="Layer_2" data-name="Layer 2"><g id="Layer_1-2" data-name="Layer 1"><g class="cls-2"><rect class="cls-3" x="6.26" y="6.19" width="19.63" height="19.63"/></g><g class="cls-4"><rect class="cls-3" width="32" height="32"/></g></g></g></svg>