<svg xmlns="http://www.w3.org/2000/svg" xmlns:xlink="http://www.w3.org/1999/xlink" viewBox="0 0 44.6 44.6"><defs><style>.cls-1,.cls-2{fill:none;}.cls-1{clip-rule:evenodd;}.cls-3{clip-path:url(#clip-path);}.cls-4{clip-path:url(#clip-path-2);}.cls-5{fill:#666;}</style><clipPath id="clip-path" transform="translate(0 -14.97)"><path class="cls-1" d="M21.38,45.17V32.3l-4.33,4.29a.44.44,0,0,1-.7,0L15.76,36q-.41-.41,0-.7l5.69-5.73a1.18,1.18,0,0,1,1.68,0l5.69,5.73q.41.29,0,.7l-.59.58a.48.48,0,0,1-.74,0L23.21,32.3V45.17c0,.35-.16.51-.51.51h-.82C21.54,45.67,21.38,45.52,21.38,45.17Zm.9-23.32A14.81,14.81,0,0,0,11.4,26.33,14.93,14.93,0,0,0,6.87,37.25,14.93,14.93,0,0,0,11.4,48.17a14.84,14.84,0,0,0,10.88,4.52A14.93,14.93,0,0,0,33.2,48.17a14.93,14.93,0,0,0,4.52-10.92A14.93,14.93,0,0,0,33.2,26.33,14.89,14.89,0,0,0,22.28,21.85Zm0-1.87A17.29,17.29,0,0,1,39.59,37.25a17.12,17.12,0,0,1-2.3,8.66,17.15,17.15,0,0,1-15,8.66,17.12,17.12,0,0,1-8.66-2.3A16.94,16.94,0,0,1,7.3,45.95,17.16,17.16,0,0,1,5,37.25,16.64,16.64,0,0,1,10.07,25,16.6,16.6,0,0,1,22.28,20Z"/></clipPath><clipPath id="clip-path-2" transform="translate(0 -14.97)"><rect class="cls-2" x="1.1" width="46" height="58"/></clipPath></defs><title>Asset 62</title><g id="Layer_2" data-name="Layer 2"><g id="Layer_1-2" data-name="Layer 1"><g class="cls-3"><g class="cls-4"><rect class="cls-5" width="44.6" height="44.6"/></g></g></g></g></svg>