<svg xmlns="http://www.w3.org/2000/svg" xmlns:xlink="http://www.w3.org/1999/xlink" viewBox="0 0 29.37 29.16"><defs><style>.cls-1,.cls-2,.cls-6{fill:none;}.cls-1{clip-rule:evenodd;}.cls-3{clip-path:url(#clip-path);}.cls-4{clip-path:url(#clip-path-2);}.cls-5{fill:#fff;}.cls-6{stroke:#fff;stroke-miterlimit:10;stroke-width:0.5px;}</style><clipPath id="clip-path"><path class="cls-1" d="M24.19,23.14a.59.59,0,0,1,.15.58.6.6,0,0,1-.43.42.61.61,0,0,1-.59-.16l-4.47-4.44.86-.84ZM5,12.79a7.88,7.88,0,1,1,7.88,7.79A7.83,7.83,0,0,1,5,12.79Zm7.88-6.56a6.64,6.64,0,0,1,6.13,4,6.5,6.5,0,0,1-1.43,7.15,6.69,6.69,0,0,1-7.23,1.42,6.56,6.56,0,0,1-4.1-6.06A6.63,6.63,0,0,1,12.88,6.23Z"/></clipPath><clipPath id="clip-path-2"><rect class="cls-2" x="4" y="4" width="21" height="21"/></clipPath></defs><title>Asset 3</title><g id="Layer_2" data-name="Layer 2"><g id="Layer_1-2" data-name="Layer 1"><g class="cls-3"><g class="cls-4"><rect class="cls-5" width="29.37" height="29.16"/></g></g><g class="cls-4"><path class="cls-6" d="M24.19,23.14a.59.59,0,0,1,.15.58.6.6,0,0,1-.43.42.61.61,0,0,1-.59-.16l-4.47-4.44.86-.84ZM5,12.79a7.88,7.88,0,1,1,7.88,7.79A7.83,7.83,0,0,1,5,12.79Zm7.88-6.56a6.64,6.64,0,0,1,6.13,4,6.5,6.5,0,0,1-1.43,7.15,6.69,6.69,0,0,1-7.23,1.42,6.56,6.56,0,0,1-4.1-6.06A6.63,6.63,0,0,1,12.88,6.23Z"/></g></g></g></svg>