<svg xmlns="http://www.w3.org/2000/svg" xmlns:xlink="http://www.w3.org/1999/xlink" viewBox="0 0 44.59 44.59"><defs><style>.cls-1,.cls-2{fill:none;}.cls-1{clip-rule:evenodd;}.cls-3{clip-path:url(#clip-path);}.cls-4{clip-path:url(#clip-path-2);}.cls-5{fill:#666;}</style><clipPath id="clip-path" transform="translate(0 -14.97)"><path class="cls-1" d="M14.4,36.35H27.27L22.94,32a.49.49,0,0,1,0-.7l.62-.59a.44.44,0,0,1,.7,0L30,36.43a1.2,1.2,0,0,1,0,1.64L24.27,43.8a.44.44,0,0,1-.7,0l-.62-.59a.54.54,0,0,1,0-.74l4.33-4.29H14.4c-.35,0-.51-.16-.51-.51v-.82C13.89,36.51,14,36.35,14.4,36.35Zm18.8-10a14.89,14.89,0,0,0-10.92-4.48A14.81,14.81,0,0,0,11.4,26.33,14.93,14.93,0,0,0,6.87,37.25,14.93,14.93,0,0,0,11.4,48.17a14.84,14.84,0,0,0,10.88,4.52A14.93,14.93,0,0,0,33.2,48.17a14.93,14.93,0,0,0,4.52-10.92A14.93,14.93,0,0,0,33.2,26.33Zm4.1,19.58a17.15,17.15,0,0,1-15,8.66,17.12,17.12,0,0,1-8.66-2.3A16.94,16.94,0,0,1,7.3,45.95,17.16,17.16,0,0,1,5,37.25,16.64,16.64,0,0,1,10.07,25a16.6,16.6,0,0,1,12.21-5,17.29,17.29,0,0,1,15,8.58,17.37,17.37,0,0,1,2.3,8.7A17.12,17.12,0,0,1,37.29,45.91Z"/></clipPath><clipPath id="clip-path-2" transform="translate(0 -14.97)"><rect class="cls-2" x="1.1" width="46" height="58"/></clipPath></defs><title>Asset 60</title><g id="Layer_2" data-name="Layer 2"><g id="Layer_1-2" data-name="Layer 1"><g class="cls-3"><g class="cls-4"><rect class="cls-5" width="44.59" height="44.59"/></g></g></g></g></svg>