<svg xmlns="http://www.w3.org/2000/svg" xmlns:xlink="http://www.w3.org/1999/xlink" viewBox="0 0 20 25"><defs><style>.cls-1{fill:none;clip-rule:evenodd;}.cls-2{clip-path:url(#clip-path);}.cls-3{fill:#666;}</style><clipPath id="clip-path"><path class="cls-1" d="M5.19,9.86,9.56,5.2a.59.59,0,0,1,.88,0l4.38,4.67a.68.68,0,0,1,0,.94.58.58,0,0,1-.44.2H5.63a.58.58,0,0,1-.44-.2.68.68,0,0,1,0-.94Zm9.63,5.27L10.44,19.8a.59.59,0,0,1-.88,0L5.19,15.14a.68.68,0,0,1,0-.94.58.58,0,0,1,.44-.2h8.75a.58.58,0,0,1,.44.2.68.68,0,0,1,0,.94Z"/></clipPath></defs><title>Asset 2</title><g id="Layer_2" data-name="Layer 2"><g id="Layer_1-2" data-name="Layer 1"><g class="cls-2"><rect class="cls-3" width="20" height="25"/></g></g></g></svg>